<?xml version="1.0" encoding="UTF-8"?>
<svg width="18px" height="18px" viewBox="0 0 18 18" version="1.1" xmlns="http://www.w3.org/2000/svg" xmlns:xlink="http://www.w3.org/1999/xlink">
    <title>54E7942B-359D-4A28-8E90-8F4EC790B9A2</title>
    <defs>
        <path d="M8.325,0 C3.725,0 0,3.73333333 0,8.33333333 C0,12.9333333 3.725,16.6666667 8.325,16.6666667 C12.9333333,16.6666667 16.6666667,12.9333333 16.6666667,8.33333333 C16.6666667,3.73333333 12.9333333,0 8.325,0 Z M8.33333333,15 C4.65,15 1.66666667,12.0166667 1.66666667,8.33333333 C1.66666667,4.65 4.65,1.66666667 8.33333333,1.66666667 C12.0166667,1.66666667 15,4.65 15,8.33333333 C15,12.0166667 12.0166667,15 8.33333333,15 Z M8.75,4.16666667 L7.5,4.16666667 L7.5,9.16666667 L11.875,11.7916667 L12.5,10.7666667 L8.75,8.54166667 L8.75,4.16666667 Z" id="path-1"></path>
    </defs>
    <g id="Page-1" stroke="none" stroke-width="1" fill="none" fill-rule="evenodd">
        <g id="Mobile---Araç-Kiralama-Landing-Page" transform="translate(-179.000000, -439.000000)">
            <g id="icon/device/access_time_24px" transform="translate(179.666667, 439.666667)">
                <mask id="mask-2" fill="white">
                    <use xlink:href="#path-1"></use>
                </mask>
                <g fill-rule="nonzero"></g>
                <g id="↳-Color" mask="url(#mask-2)" fill="#53605E">
                    <g transform="translate(-1.666667, -1.666667)" id="Rectangle">
                        <rect x="0" y="0" width="20" height="20"></rect>
                    </g>
                </g>
            </g>
        </g>
    </g>
</svg>