<?xml version="1.0" encoding="UTF-8"?>
<svg width="34px" height="34px" viewBox="0 0 34 34" version="1.1" xmlns="http://www.w3.org/2000/svg" xmlns:xlink="http://www.w3.org/1999/xlink">
    <title>65124315-F967-4CBE-8597-8247602D7385</title>
    <defs>
        <path d="M16.6666667,0 C7.46666667,0 0,7.46666667 0,16.6666667 C0,25.8666667 7.46666667,33.3333333 16.6666667,33.3333333 L25,33.3333333 L25,30 L16.6666667,30 C9.43333333,30 3.33333333,23.9 3.33333333,16.6666667 C3.33333333,9.43333333 9.43333333,3.33333333 16.6666667,3.33333333 C23.9,3.33333333 30,9.43333333 30,16.6666667 L30,19.05 C30,20.3666667 28.8166667,21.6666667 27.5,21.6666667 C26.1833333,21.6666667 25,20.3666667 25,19.05 L25,16.6666667 C25,12.0666667 21.2666667,8.33333333 16.6666667,8.33333333 C12.0666667,8.33333333 8.33333333,12.0666667 8.33333333,16.6666667 C8.33333333,21.2666667 12.0666667,25 16.6666667,25 C18.9666667,25 21.0666667,24.0666667 22.5666667,22.55 C23.65,24.0333333 25.5166667,25 27.5,25 C30.7833333,25 33.3333333,22.3333333 33.3333333,19.05 L33.3333333,16.6666667 C33.3333333,7.46666667 25.8666667,0 16.6666667,0 Z M16.6666667,21.6666667 C13.9,21.6666667 11.6666667,19.4333333 11.6666667,16.6666667 C11.6666667,13.9 13.9,11.6666667 16.6666667,11.6666667 C19.4333333,11.6666667 21.6666667,13.9 21.6666667,16.6666667 C21.6666667,19.4333333 19.4333333,21.6666667 16.6666667,21.6666667 Z" id="path-1"></path>
    </defs>
    <g id="Reklam-Sayfası" stroke="none" stroke-width="1" fill="none" fill-rule="evenodd">
        <g id="Enuygun-Reklam" transform="translate(-357.000000, -1937.000000)">
            <g id="contact" transform="translate(0.000000, 1606.000000)">
                <g id="Group-14" transform="translate(320.000000, 142.000000)">
                    <g id="Group-28" transform="translate(10.000000, 156.000000)">
                        <g id="icon/communication/alternate_email_24px" transform="translate(27.333333, 33.333333)">
                            <mask id="mask-2" fill="white">
                                <use xlink:href="#path-1"></use>
                            </mask>
                            <g fill-rule="nonzero"></g>
                            <g id="↳-Color" mask="url(#mask-2)" fill="#FFFFFF">
                                <g transform="translate(-3.333333, -3.333333)" id="Rectangle">
                                    <rect x="0" y="0" width="40" height="40"></rect>
                                </g>
                            </g>
                        </g>
                    </g>
                </g>
            </g>
        </g>
    </g>
</svg>