<?xml version="1.0" encoding="UTF-8"?>
<svg width="31px" height="27px" viewBox="0 0 31 27" version="1.1" xmlns="http://www.w3.org/2000/svg" xmlns:xlink="http://www.w3.org/1999/xlink">
    <title>89446671-9BFC-4AC5-AAC1-A238DE855B19</title>
    <g id="Page-1" stroke="none" stroke-width="1" fill="none" fill-rule="evenodd">
        <g id="Araç-Kiralama-Ek-Hizmet-ve-Güvence" transform="translate(-191.000000, -938.000000)" fill="#2DC44D">
            <g id="Group-4-Copy-7" transform="translate(160.000000, 906.000000)">
                <g id="bebekkoltugu" transform="translate(16.000000, 15.000000)">
                    <g id="Group-39" transform="translate(15.500000, 17.000000)">
                        <path d="M24.8328499,11.0158674 C26.9452707,11.0158674 28.7727369,11.4467168 29.6950626,11.7110367 C28.8405185,9.21444368 25.8249555,3.35662189 16.3365669,3.35662189 C13.807385,9.09744441 14.977897,13.5843745 15.7711338,15.551772 C17.6783713,12.5774981 20.7786614,11.0158674 24.8328499,11.0158674" id="Fill-24"></path>
                        <path d="M24.8328499,11.9801985 C22.0466894,11.9801985 18.7599199,12.7840328 16.6595687,15.9625394 C17.6061136,16.2532914 18.2956797,17.1304684 18.2956797,18.1646499 C18.2956797,19.4352112 17.2546562,20.4690752 15.9750382,20.4690752 C15.6406063,20.4690752 15.3226401,20.3977961 15.0350478,20.2707956 C14.9726215,20.2582543 14.9104351,20.2439667 14.848968,20.2260279 C14.7254744,20.1899121 11.7806504,19.3409133 8.27007373,19.3409133 C6.05685974,19.3409133 4.11197467,19.6753217 2.48065955,20.3348515 L3.21770481,23.7956963 C3.21770481,23.7956963 3.99471565,27 12.8069666,27 C21.6193774,27 22.3963882,23.7956963 22.3963882,23.7956963 L23.1936216,19.8688388 L30,12.8176879 C30,12.8176879 27.6776,11.9801985 24.8328499,11.9801985" id="Fill-25"></path>
                        <path d="M13.6544767,18.1646499 C13.6544767,17.5667947 13.8849182,17.0214861 14.2622733,16.611433 C13.3508981,16.4195034 12.1002152,16.2015386 10.6645716,16.07557 C9.83376708,16.002624 9.02694192,15.9661907 8.24481548,15.9661907 C5.39055356,15.9661907 2.86584783,16.450936 0.715060082,17.4141559 C0.103986336,17.6878422 -0.167939483,18.4017441 0.107583238,19.0085687 C0.310048876,19.4545788 0.75206821,19.71874 1.21486965,19.71874 C1.38160605,19.71874 1.55121998,19.6842911 1.71316052,19.611742 C3.80455942,18.6752716 6.14022795,18.3766615 8.27007373,18.3766615 C10.5253315,18.3766615 12.548709,18.7117049 13.8045075,18.9789617 C13.7078707,18.7255955 13.6544767,18.4511156 13.6544767,18.1646499" id="Fill-26"></path>
                        <path d="M15.9750382,16.824397 C15.230959,16.824397 14.6255604,17.425586 14.6255604,18.1646499 C14.6255604,18.9034757 15.230959,19.5046646 15.9750382,19.5046646 C16.7191974,19.5046646 17.324596,18.9034757 17.324596,18.1646499 C17.324596,17.425586 16.7191974,16.824397 15.9750382,16.824397" id="Fill-27"></path>
                        <path d="M14.9842915,16.0812056 C12.8839403,13.6399372 12.1576857,10.6239912 12.8283082,7.08686668 C13.4501726,3.80707703 15.0901203,1.28190888 15.1148191,1.24420558 C15.3595683,0.873205176 15.2554979,0.375442328 14.8818997,0.131839365 C14.5079817,-0.111763598 14.0065735,-0.00809938538 13.7612647,0.362901022 C13.6873284,0.474899647 11.940193,3.14762659 11.2476694,6.738012 C10.4622658,10.8097296 11.361971,14.3970987 13.8523063,17.2350851 C14.0778721,16.7289085 14.4816044,16.3179029 14.9842915,16.0812056" id="Fill-28"></path>
                    </g>
                </g>
            </g>
        </g>
    </g>
</svg>