<?xml version="1.0" encoding="UTF-8"?>
<svg width="120px" height="40px" viewBox="0 0 120 40" version="1.1" xmlns="http://www.w3.org/2000/svg" xmlns:xlink="http://www.w3.org/1999/xlink">
    <title>C97CA25E-8990-49E2-A4CF-4B193CDD7FEB</title>
    <g id="Design" stroke="none" stroke-width="1" fill="none" fill-rule="evenodd">
        <g id="Enuygun_Homepage" transform="translate(-539.000000, -2648.000000)">
            <g id="App-Download" transform="translate(0.000000, 2275.000000)">
                <g id="App-Store" transform="translate(539.000000, 373.000000)">
                    <rect id="Background" fill="#000000" x="0" y="0" width="120" height="40" rx="3.55091384"></rect>
                    <g id="Group-58" transform="translate(12.000000, 6.540470)" fill="#FFFFFF">
                        <path d="M10.2216239,9.20055866 C11.3149972,9.20055866 12.473504,9.79465238 13.2991065,10.8211031 C10.5941872,12.299839 11.0336208,16.1523505 13.7666198,17.1825558 C13.3902933,18.0146335 13.2102355,18.3857616 12.7256427,19.1207973 C12.0499919,20.147248 11.0973068,21.4249683 9.91708893,21.4362321 C8.86771688,21.445763 8.59849868,20.7549161 7.17482648,20.7627141 C5.75144377,20.7708009 5.45414581,21.4480736 4.40506325,21.4385426 C3.22455589,21.4278565 2.32166171,20.2737493 1.64572137,19.2475874 C-0.244595714,16.3776267 -0.442022399,13.009459 0.723721385,11.2188022 C1.55221871,9.94628058 2.8589402,9.20171393 4.08779104,9.20171393 C5.33922148,9.20171393 6.12574392,9.88591811 7.1600629,9.88591811 C8.1636968,9.88591811 8.77508266,9.20055866 10.2216239,9.20055866 Z M9.90406224,5.45953003 C10.0488032,6.43081693 9.64960761,7.38073149 9.12419789,8.05367186 C8.56144499,8.77455563 7.59168048,9.33312503 6.65462743,9.30424347 C6.4835436,8.37483483 6.92297719,7.41856633 7.455045,6.77392988 C8.04124594,6.06373229 9.0454588,5.51873723 9.90406224,5.45953003 Z" id="Icon---Apple"></path>
                        <text id="App-Store-’dan-indir" font-family="OpenSans-Bold, Open Sans" font-size="12" font-weight="bold" line-spacing="13">
                            <tspan x="21" y="13">App Store</tspan>
                            <tspan x="21.8320312" y="26.2519531" font-family="OpenSans-Regular, Open Sans" font-weight="normal">’dan indirin</tspan>
                        </text>
                    </g>
                </g>
            </g>
        </g>
    </g>
</svg>