<?xml version="1.0" encoding="UTF-8"?>
<svg width="91px" height="90px" viewBox="0 0 91 90" version="1.1" xmlns="http://www.w3.org/2000/svg" xmlns:xlink="http://www.w3.org/1999/xlink">
    <title>DD67A73D-5AFC-4ECD-A477-43489E17F510</title>
    <g id="Reklam-Sayfası" stroke="none" stroke-width="1" fill="none" fill-rule="evenodd">
        <g id="Enuygun-Reklam_Mobil" transform="translate(-142.000000, -1323.000000)">
            <g id="Group-2" transform="translate(0.000000, 485.000000)">
                <g id="value-prop" transform="translate(16.000000, 32.000000)">
                    <g id="Group-30" transform="translate(0.000000, 82.000000)">
                        <g id="Group-24" transform="translate(0.000000, 692.000000)">
                            <g id="ad_icon_03" transform="translate(126.500000, 32.000000)">
                                <circle id="Oval" fill="#E5F3FF" cx="45" cy="45" r="45"></circle>
                                <g id="Group-20" transform="translate(17.000000, 23.000000)">
                                    <g id="Group-13" fill="#0087FF">
                                        <path d="M54.9953665,39.6934712 L54.9953665,37.0331628 L0,37.0331628 L0,39.6934712 C0,39.6934712 -0.000823197345,40.1136492 2.63258614,40.3700151 L6.81689987,41.3250396 L48.3974372,41.3250396 L52.5833973,40.3700151 C55.2176298,40.1136492 54.9953665,39.6934712 54.9953665,39.6934712" id="Fill-3"></path>
                                        <path d="M48.9259301,1.01399683 C48.9259301,0.453759487 48.4698786,0 47.9068114,0 L7.02434568,0 C6.46127848,0 6.00522697,0.453759487 6.00522697,1.01399683 L6.00522697,33.7248139 L48.9259301,33.7248139 L48.9259301,1.01399683 Z" id="Fill-4"></path>
                                    </g>
                                    <polygon id="Path" fill="#F0F8FF" points="11.6268438 29.5336816 43.3051364 29.5336816 43.3051364 4.63915837 11.6268438 4.63915837"></polygon>
                                    <g id="Group-19" transform="translate(39.145333, 15.332884)">
                                        <path d="M15.5268627,0 L0.936126004,0 C0.421039671,0 0,0.410328027 0,0.911524544 L0,27.7555911 C0,28.2572609 0.421039671,28.6671156 0.936126004,28.6671156 L15.5268627,28.6671156 C16.0424314,28.6671156 16.4639533,28.2572609 16.4639533,27.7555911 L16.4639533,0.911524544 C16.4639533,0.410328027 16.0424314,0 15.5268627,0 L15.5268627,0 Z" id="Fill-1" fill="#0087FF"></path>
                                        <polygon id="Path" fill="#F0F8FF" points="1.85633642 24.8875544 14.7069688 24.8875544 14.7069688 4.59737769 1.85633642 4.59737769"></polygon>
                                        <path d="M8.28189373,1.09799426 C8.95034847,1.09799426 9.49292536,1.63042682 9.49292536,2.28638374 C9.49292536,2.94186738 8.95034847,3.47335339 8.28189373,3.47335339 C7.613439,3.47335339 7.07134439,2.94186738 7.07134439,2.28638374 C7.07134439,1.63042682 7.613439,1.09799426 8.28189373,1.09799426 L8.28189373,1.09799426 Z" id="Path" fill="#FFFFFF"></path>
                                    </g>
                                </g>
                            </g>
                        </g>
                    </g>
                </g>
            </g>
        </g>
    </g>
</svg>