<?xml version="1.0" encoding="UTF-8"?>
<svg width="20px" height="18px" viewBox="0 0 20 18" version="1.1" xmlns="http://www.w3.org/2000/svg" xmlns:xlink="http://www.w3.org/1999/xlink">
    <title>E92A27A4-7BA9-45CC-BA49-8FC2E290FDF8</title>
    <defs>
        <path d="M8,13 L8,12 L1.01,12 L1,16 C1,17.11 1.89,18 3,18 L17,18 C18.11,18 19,17.11 19,16 L19,12 L12,12 L12,13 L8,13 Z M18,4 L14,4 L14,2 L12,0 L8,0 L6,2 L6,4 L2,4 C0.9,4 0,4.9 0,6 L0,9 C0,10.11 0.89,11 2,11 L8,11 L8,9 L12,9 L12,11 L18,11 C19.1,11 20,10.1 20,9 L20,6 C20,4.9 19.1,4 18,4 Z M12,4 L8,4 L8,2 L12,2 L12,4 Z" id="path-1"></path>
    </defs>
    <g id="Login-/-Register" stroke="none" stroke-width="1" fill="none" fill-rule="evenodd">
        <g id="Register_Mobil" transform="translate(-108.000000, -632.000000)">
            <g id="Group-4" transform="translate(0.000000, 70.000000)">
                <g id="Buttons/Fill/1-Primary/1-Default" transform="translate(23.000000, 547.000000)">
                    <g id="Group" transform="translate(83.000000, 12.000000)">
                        <g id="icon/places/business_center_24px" transform="translate(2.000000, 3.000000)">
                            <mask id="mask-2" fill="white">
                                <use xlink:href="#path-1"></use>
                            </mask>
                            <g fill-rule="nonzero"></g>
                            <g id="↳-Color" mask="url(#mask-2)" fill="#FFFFFF">
                                <g transform="translate(-2.000000, -3.000000)" id="Rectangle">
                                    <rect x="0" y="0" width="24" height="24"></rect>
                                </g>
                            </g>
                        </g>
                    </g>
                </g>
            </g>
        </g>
    </g>
</svg>