<?xml version="1.0" encoding="UTF-8"?>
<svg width="120px" height="120px" viewBox="0 0 120 120" version="1.1" xmlns="http://www.w3.org/2000/svg" xmlns:xlink="http://www.w3.org/1999/xlink">
    <title>968959FD-E534-4707-AAA8-A707D7399431</title>
    <defs>
        <polygon id="path-1" points="0 0 120 0 120 120 0 120"></polygon>
    </defs>
    <g id="Design" stroke="none" stroke-width="1" fill="none" fill-rule="evenodd">
        <g id="Enuygun_Homepage" transform="translate(-855.000000, -1385.000000)">
            <g id="Group-54" transform="translate(810.000000, 1385.000000)">
                <g id="cagri-merkezi" transform="translate(45.000000, 0.000000)">
                    <g id="cagrimerkezi">
                        <mask id="mask-2" fill="white">
                            <use xlink:href="#path-1"></use>
                        </mask>
                        <g id="Clip-2"></g>
                        <path d="M60.0000284,120 C26.9155289,120 0,93.0839157 0,60 C0,53.7850122 0.946537577,47.6575195 2.81347784,41.789671 C3.12596023,40.8079086 4.17476477,40.2636214 5.15709579,40.5778081 C6.1382905,40.8897222 6.68144172,41.9390944 6.36895932,42.9202886 C4.61848977,48.4228169 3.73047163,54.1690813 3.73047163,60 C3.73047163,91.0272144 28.9727994,116.26953 60.0000284,116.26953 C91.0272575,116.26953 116.269585,91.0272144 116.269585,60 C116.269585,28.9727856 91.0272575,3.73046986 60.0000284,3.73046986 C51.2306362,3.73046986 42.8299731,5.69115391 35.0332533,9.55854781 C34.1100099,10.0170445 32.9901866,9.63865689 32.5333942,8.71598205 C32.0754654,7.7933072 32.4521488,6.67405261 33.3753922,6.21612408 C41.6925372,2.0919266 50.6499871,0 60.0000284,0 C93.0845279,0 120.000057,26.9160843 120.000057,60 C120.000057,93.0839157 93.0845279,120 60.0000284,120" id="Fill-1" fill="#FFFFFF" mask="url(#mask-2)"></path>
                    </g>
                    <g id="Group-4" transform="translate(2.553693, 4.738765)" fill="#FFFFFF">
                        <path d="M25.0822498,14.8508607 C24.5930728,14.5792853 24.1129862,14.3452077 23.7414163,14.2537356 L23.7414163,12.663485 C23.7414163,7.13141299 19.2405335,2.63053236 13.7084588,2.63053236 C8.17638417,2.63053236 3.67550141,7.13141299 3.67550141,12.663485 L3.67550141,14.2503267 C3.31131739,14.334981 2.82952635,14.5622408 2.33466787,14.8292711 L2.33466787,12.663485 C2.33466787,6.39225044 7.43665313,1.2902676 13.7084588,1.2902676 C19.9802645,1.2902676 25.0816817,6.39225044 25.0816817,12.663485 L25.0816817,14.8508607 L25.0822498,14.8508607 Z M26.3719499,15.2389069 L26.3719499,12.663485 C26.3719499,5.68092722 20.6915881,0 13.7084588,0 C6.72589772,0 1.04496781,5.68092722 1.04496781,12.663485 L1.04496781,15.1718652 C0.244444734,16.0536333 -0.275412339,17.3740128 0.155245214,19.3000398 L1.00292472,22.3316857 C1.54721224,24.2770297 3.33631598,25.6360434 5.35438409,25.6360434 C9.84617645,25.5383217 8.33603427,21.4465087 8.03775562,20.3817965 L7.18155386,17.3189023 C6.74294221,15.7496733 6.29069497,14.1355605 4.96576962,13.7037668 C4.96576962,13.7037668 4.64249238,11.1840236 5.66743463,9.23242998 L7.52698895,10.072155 C7.52698895,10.072155 9.50585472,6.08317709 13.7164129,6.08317709 C17.9269711,6.08317709 19.8961784,10.0545424 19.8961784,10.0545424 L21.772209,9.28526788 C22.6914754,11.485711 22.451148,13.6838816 22.451148,13.6838816 C21.0802026,14.0872678 20.6211375,15.725811 20.1762762,17.3189023 L20.171731,17.3342424 L19.3195063,20.3817965 C19.026341,21.4288961 17.562219,25.4019658 21.7824357,25.6275212 C21.7824357,27.40867 20.3330856,29.3040168 18.5519359,29.3040168 L14.9953181,29.3040168 C14.7726034,28.4495199 13.9948063,27.8166013 13.0715629,27.8166013 L10.6643122,27.8166013 C9.5683512,27.8166013 8.67692415,28.708028 8.67692415,29.8039884 C8.67692415,30.8999489 9.5683512,31.7919436 10.6643122,31.7919436 L13.0715629,31.7919436 C13.8868579,31.7919436 14.589091,31.2982217 14.8953238,30.5937163 L18.5519359,30.5937163 C21.0444091,30.5937163 23.0727039,27.9984092 23.0727039,25.5059372 C24.6294344,25.1230044 25.9094759,23.9242089 26.3543372,22.3316857 L27.2025849,19.3000398 C27.6218794,17.4223056 27.1389521,16.1201068 26.3719499,15.2389069 L26.3719499,15.2389069 Z" id="Fill-4"></path>
                        <path d="M27.9952675,62.4358843 C28.782155,62.301801 29.4406406,62.8477927 29.4406406,63.635248 C29.4406406,64.4221351 28.782155,65.193114 27.9952675,65.3271973 C27.2089482,65.4612806 26.5504625,64.9152889 26.5504625,64.1284018 C26.5504625,63.3409465 27.2089482,62.5699676 27.9952675,62.4358843 L27.9952675,62.4358843 Z M24.0068558,63.1165275 C24.7937433,62.9824442 25.452229,63.5284359 25.452229,64.3158911 C25.452229,65.1022101 24.7937433,65.8737572 24.0068558,66.0078405 C23.2199684,66.1419238 22.5614827,65.595932 22.5614827,64.8090449 C22.5614827,64.0215897 23.2199684,63.2506108 24.0068558,63.1165275 L24.0068558,63.1165275 Z M31.1609982,73.2057269 C31.1609982,74.3772513 31.0144156,75.8476223 29.8065291,77.2981081 C28.6355723,78.7059826 27.2822395,79.1201636 26.0010617,79.338333 C24.720452,79.5570706 23.366551,79.6053633 22.1955943,78.5968979 C20.9877078,77.5583205 20.8416933,76.1373786 20.8416933,74.9664224 L20.8416933,67.7372877 L23.6591482,67.2566331 L23.6591482,74.4119084 C23.6591482,74.9436964 23.6960779,75.8334186 24.299453,76.3532754 C24.7937433,76.7992728 25.4704097,76.7935913 26.0010617,76.7026873 C26.5317136,76.6123516 27.2089482,76.3873644 27.7026703,75.7726266 C28.3066136,75.0465314 28.3429752,74.1437418 28.3429752,73.6130902 L28.3429752,66.4572467 L31.1609982,65.9765922 L31.1609982,73.2057269 Z" id="Fill-6"></path>
                        <path d="M42.6514871,75.8384183 C41.5720025,76.5718993 40.6936429,76.8315437 39.961866,76.9565366 C37.7114246,77.3406056 36.1927601,76.8304074 35.168386,75.9986364 C34.0701525,75.1248225 33.2650842,73.6516107 33.2650842,71.6937674 C33.2650842,69.7722857 34.0701525,68.0240895 35.168386,66.7752969 C36.2478707,65.5480939 37.8216456,64.5663315 39.7243793,64.2413499 C40.5294476,64.1044259 41.4623496,64.1095392 42.6514871,64.4186126 L42.6514871,67.676382 C42.0293631,67.1241407 41.0964611,66.6423499 39.7976707,66.8639282 C38.7727284,67.0389182 37.9494793,67.5087779 37.3086064,68.2405545 C36.6319399,69.0143742 36.1558304,70.0841998 36.1558304,71.255156 C36.1558304,72.5181524 36.6688697,73.3271973 37.2177024,73.7646725 C37.473938,73.9771604 38.3517294,74.5953071 39.852213,74.3396398 C40.58399,74.215215 41.5720025,73.8447815 42.6514871,72.5993978 L42.6514871,75.8384183 Z" id="Fill-8"></path>
                        <path d="M47.720122,68.6968922 L48.3604268,68.5878075 C48.872898,68.5003125 49.5677452,68.3264587 50.0438547,67.7696722 C50.2449797,67.5338901 50.5012153,67.1060735 50.5012153,66.5015624 C50.5012153,65.8067155 50.1716884,65.4965059 49.9336336,65.3544685 C49.4768412,65.0845975 48.7444961,65.1732288 48.3786076,65.2357252 L47.720122,65.3476507 L47.720122,68.6968922 Z M49.1836759,62.9017669 C50.7387019,62.6364411 51.7091018,62.9835805 52.2942961,63.4329868 C52.8067672,63.8392137 53.3555999,64.6238282 53.3555999,65.9782967 C53.3555999,66.747003 53.1908365,67.7264928 52.403949,68.6292824 C51.98295,69.1042554 51.3795749,69.5729788 50.7023403,69.8530765 L54.4532654,74.2096472 L51.0136864,74.7965457 L47.720122,70.5450827 L47.720122,75.3584455 L44.9026671,75.8391001 L44.9026671,63.6318391 L49.1836759,62.9017669 Z" id="Fill-10"></path>
                        <polygon id="Fill-12" points="62.9067663 62.9390944 58.8268826 63.6356457 58.8268826 65.996307 62.7056413 65.3344128 62.7056413 67.7132549 58.8268826 68.3751491 58.8268826 71.0840861 62.9067663 70.3875348 62.9067663 72.7669451 56.0088595 73.9435828 56.0088595 61.7368899 62.9067663 60.5602523"></polygon>
                        <polygon id="Fill-14" points="69.4754303 61.8185899 69.4754303 71.6464405 66.6579754 72.1270951 66.6579754 62.2992444 64.0047158 62.7520595 64.0047158 60.3726493 72.1286899 58.9869326 72.1286899 61.3657747"></polygon>
                        <path d="M79.392542,60.7308676 C78.4778208,60.0632919 77.6909333,60.1428328 77.3432256,60.2019203 C76.9591564,60.2678257 76.4830468,60.4036134 76.1540881,60.8257485 C75.9711438,61.0399409 75.842742,61.3359468 75.842742,61.6472928 C75.842742,61.9398898 75.9347823,62.1438555 76.1177265,62.2779388 C76.4097555,62.5023578 76.8307545,62.5404238 77.6545717,62.7103006 L78.5692929,62.9023351 C79.0993767,63.0136924 79.7584305,63.175615 80.2339718,63.55173 C80.947568,64.1073803 81.1305122,64.9544912 81.1305122,65.6675189 C81.1305122,66.9305153 80.6913324,68.1037441 80.0515958,68.8718823 C78.971543,70.1905574 77.3983362,70.5689449 76.5932679,70.7064371 C75.7149083,70.8564286 74.9467697,70.8592694 74.1780631,70.6058747 C73.555939,70.4007727 72.8423429,69.9553434 72.3849823,69.5758196 L73.8485362,67.31288 C74.1598823,67.571388 74.6536044,67.9077325 74.9831313,68.0531788 C75.4586727,68.2645304 75.9529631,68.3270269 76.5199766,68.2298733 C76.885865,68.1673769 77.3983362,68.0071587 77.8005862,67.5901369 C78.038641,67.3481052 78.239766,66.9850577 78.239766,66.5271291 C78.239766,66.1243111 78.0755707,65.8970513 77.818767,65.7209249 C77.4898083,65.5021874 76.7398505,65.3556048 76.3915747,65.2868587 L75.3853814,65.1113005 C74.8183679,65.006761 74.1598823,64.862451 73.6837727,64.4317936 C73.0434679,63.8636441 72.9519958,63.0188057 72.9519958,62.4330436 C72.9519958,61.3535595 73.2815227,60.3825919 74.0132996,59.5076416 C74.8729103,58.4821317 75.8978525,58.0696551 77.0324477,57.8759161 C77.8738775,57.7327425 79.2277785,57.6480882 80.6549708,58.4656554 L79.392542,60.7308676 Z" id="Fill-16"></path>
                        <path d="M86.0344973,56.6139992 L86.0344973,68.820692 L83.2170424,69.3019147 L83.2170424,57.0946537 L86.0344973,56.6139992 Z M84.6260539,52.5903642 C85.5038454,52.4409409 86.1810799,53.0022726 86.1810799,53.8806318 C86.1810799,54.758991 85.5038454,55.5515596 84.6260539,55.701551 C83.7476943,55.8515425 83.0704597,55.2896426 83.0704597,54.4118516 C83.0704597,53.5329243 83.7476943,52.7403557 84.6260539,52.5903642 L84.6260539,52.5903642 Z" id="Fill-18"></path>
                        <polygon id="Fill-20" points="92.4569763 65.3459463 97.689636 64.4533833 97.689636 66.8322254 87.8282598 68.5150844 93.6830436 57.6878586 88.7793426 58.5247429 88.7793426 56.1459008 98.2935793 54.5226976"></polygon>
                        <path d="M27.3652462,92.6166127 L26.169859,94.2403841 L25.4863748,94.015965 L26.4471161,92.367195 L27.3652462,92.6166127 Z M28.8378905,85.9351741 C28.0487304,85.3550935 27.3118401,85.4056588 26.9061811,85.474973 C25.3585411,85.7391625 24.3125773,87.0601102 24.3125773,88.6299074 C24.3125773,90.1360718 25.4011523,91.1144253 26.916976,90.8559173 C27.7709051,90.710471 28.4327997,90.1599341 28.8378905,89.7054145 L28.8378905,90.9979547 C28.123158,91.5473553 27.376041,91.7814329 26.8845914,91.865519 C25.5931869,92.0853929 24.7824371,91.6365547 24.3659833,91.3121414 C23.5330757,90.6746776 23.2240022,89.8196125 23.2240022,88.8156923 C23.2240022,87.5015624 23.7677216,86.5010511 24.3659833,85.8334754 C25.1023055,85.0136356 25.9568028,84.6324072 26.9379975,84.4648031 C27.5896653,84.354014 28.2191753,84.3642407 28.8378905,84.6534288 L28.8378905,85.9351741 Z" id="Fill-22"></path>
                        <path d="M33.8251663,87.7972842 L32.7684076,85.5633203 L31.6690378,88.164877 L33.8251663,87.7972842 Z M34.2632098,88.7483666 L31.2207676,89.2670871 L30.4418342,91.1198227 L29.2674685,91.3198114 L32.8110189,83.1748196 L36.1841243,90.1397648 L35.0097586,90.3403216 L34.2632098,88.7483666 Z" id="Fill-24"></path>
                        <path d="M42.0891325,79.7977388 C42.0249315,80.1397648 41.8647133,80.5084938 41.662452,80.7885916 C41.4596225,81.0692574 41.0113523,81.5198 40.274462,81.6453611 C39.5381398,81.7714903 39.0898696,81.4732117 38.8870402,81.2624283 C38.6842107,81.0510766 38.5239924,80.7363218 38.4597915,80.4170218 L39.3353104,80.2675984 C39.3995113,80.4806545 39.5381398,80.6493949 39.6983581,80.7289359 C39.9006194,80.8329072 40.104017,80.8204079 40.274462,80.7908642 C40.4454751,80.7613204 40.6483046,80.7056417 40.851134,80.5323561 C41.0113523,80.3982728 41.1499808,80.182376 41.2136136,79.9471621 L42.0891325,79.7977388 Z M40.6056933,85.6792228 L43.5407552,85.178683 L43.5407552,85.2315209 C43.5407552,86.4496335 43.1782756,87.5041191 42.4839966,88.2961195 C41.7476744,89.1369809 40.8721556,89.4784387 40.0614058,89.6170672 C39.0256687,89.7937617 38.2893466,89.6204761 37.6382469,89.0585762 C36.944536,88.4614511 36.5814882,87.5734333 36.5814882,86.5479234 C36.5814882,85.4371911 37.0297584,84.3991819 37.6166572,83.7111528 C38.2251456,82.9878984 39.1966818,82.3737288 40.2960517,82.1862394 C40.9363565,82.0771547 41.598251,82.1032896 42.1533334,82.3180501 C42.7402321,82.5487188 43.1032799,82.9032441 43.3061093,83.1895915 L42.4413853,83.9457985 C42.227761,83.6827453 41.9078927,83.4174195 41.5664346,83.2833362 C41.1710024,83.1157321 40.7443219,83.1140276 40.3062784,83.1884552 C39.3784897,83.3469689 38.780228,83.8338731 38.4279751,84.2457815 C37.9586834,84.7957502 37.6706314,85.6036589 37.6706314,86.3723652 C37.6706314,87.0876655 37.9370937,87.7580819 38.4069536,88.1796489 C38.897835,88.6188285 39.5063234,88.708028 40.1892395,88.5915573 C40.8085228,88.4858815 41.3204258,88.2165786 41.780059,87.689904 C42.1743549,87.2382251 42.3345732,86.7939322 42.3771844,86.3808874 L40.6056933,86.683143 L40.6056933,85.6792228 Z" id="Fill-26"></path>
                        <path d="M45.9987985,84.6097949 L46.3402566,84.5512755 C46.6391034,84.5007102 47.8560803,84.2609511 47.8560803,83.1286291 C47.8560803,82.1247088 46.9061338,82.1906142 46.372073,82.2815181 L45.9987985,82.345719 L45.9987985,84.6097949 Z M46.1800383,81.3099824 C47.0447623,81.1628317 47.5998447,81.1753309 48.0589097,81.4059997 C48.8378431,81.7968865 48.902044,82.6297938 48.902044,82.9394353 C48.902044,83.964377 48.2719659,84.8200102 47.3225876,85.1955571 L49.5423489,87.8607465 L48.2293547,88.0845975 L46.1908332,85.5171297 L45.9987985,85.5495142 L45.9987985,88.4652577 L44.9096554,88.6510426 L44.9096554,81.5270155 L46.1800383,81.3099824 Z" id="Fill-28"></path>
                        <polygon id="Fill-30" points="51.7008068 80.3681041 51.7008068 87.4921311 50.6122318 87.677916 50.6122318 80.553889"></polygon>
                        <polygon id="Fill-32" points="55.6839346 86.8124538 57.1781686 78.8998352 59.6547336 84.009204 62.1523202 78.0510198 63.4971308 85.479575 62.3869661 85.6687688 61.6608706 81.4991194 59.5899646 86.4772456 57.5412164 82.1911255 56.7940994 86.62326"></polygon>
                        <polygon id="Fill-34" points="68.9225637 78.455031 66.0835191 78.9396625 66.0835191 80.7446736 68.8373413 80.2753821 68.8373413 81.300892 66.0835191 81.7701835 66.0835191 84.0126697 68.9225637 83.5286063 68.9225637 84.5535481 64.9949441 85.2239645 64.9949441 78.0999375 68.9225637 77.429521"></polygon>
                        <path d="M71.4223661,80.2720868 L71.7638241,80.2135674 C72.0626709,80.1630021 73.2796478,79.923243 73.2796478,78.790921 C73.2796478,77.7870007 72.3297013,77.8529061 71.7962086,77.94381 L71.4223661,78.0080109 L71.4223661,80.2720868 Z M71.6036058,76.9722743 C72.4683298,76.8251236 73.0234122,76.8370547 73.4824772,77.0682916 C74.2614106,77.4591785 74.3256116,78.2920857 74.3256116,78.6017272 C74.3256116,79.6266689 73.6955334,80.4823021 72.7461551,80.857849 L74.9659164,83.5230385 L73.6529222,83.7468894 L71.6144007,81.1794216 L71.4223661,81.2118061 L71.4223661,84.1275496 L70.3332229,84.3133345 L70.3332229,77.1893074 L71.6036058,76.9722743 Z" id="Fill-36"></path>
                        <polygon id="Fill-38" points="77.1241471 78.8717118 79.8779692 75.5605363 81.3080022 75.3168002 78.0956832 79.0910176 81.3295919 82.4368502 79.8779692 82.6845634 77.3372032 79.9568775 77.1241471 80.2068632 77.1241471 83.154423 76.0350039 83.3402079 76.0350039 76.2161809 77.1241471 76.030396"></polygon>
                        <polygon id="Fill-40" points="86.2203391 75.503835 83.3812945 75.9884666 83.3812945 77.7934776 86.1351166 77.323618 86.1351166 78.3491279 83.3812945 78.8189876 83.3812945 81.0614738 86.2203391 80.5774104 86.2203391 81.6023521 82.2927195 82.2727686 82.2927195 75.1487415 86.2203391 74.4783251"></polygon>
                        <polygon id="Fill-42" points="88.8696784 80.1250497 92.2853951 79.5426964 92.2853951 80.5676382 87.0976192 81.4528152 90.5985583 74.7571729 87.6742913 75.2560082 87.6742913 74.2304983 92.3706175 73.4294074"></polygon>
                        <path d="M94.6354899,73.0426112 L94.6354899,80.1666383 L93.5469149,80.3524232 L93.5469149,73.2283961 L94.6354899,73.0426112 Z M94.0912024,70.9893188 C94.4962932,70.9200045 94.8059349,71.1768081 94.8059349,71.5830351 C94.8059349,71.9886938 94.4962932,72.3506051 94.0912024,72.4199193 C93.6855435,72.4886654 93.3759018,72.23243 93.3759018,71.8267712 C93.3759018,71.4205443 93.6855435,71.0580649 94.0912024,70.9893188 L94.0912024,70.9893188 Z" id="Fill-44"></path>
                        <polygon id="Fill-46" points="31.7703389 36.1420374 21.6055707 37.8947787 21.6055707 32.5195159 41.6061483 29.0708482 27.6387535 55.8693256 20.6544879 57.0732345"></polygon>
                        <polygon id="Fill-48" points="51.4793988 25.1008465 56.2694698 24.2747571 37.5477974 61.0351685 32.7946562 61.8544401"></polygon>
                        <path d="M74.5890626,47.7735356 L55.0265285,51.1466394 L61.2062939,43.6089995 C63.3999203,40.9267655 65.0458503,38.6320095 66.2156708,36.5650815 C66.8735883,35.4276462 67.5320739,34.1072666 67.5320739,32.5351969 C67.5320739,32.2795296 67.5320739,30.9994887 66.8008651,30.3211181 C66.4349766,29.9819328 65.8134207,29.7597864 65.0089206,29.898983 C63.9851146,30.0751094 63.2902674,30.6705301 62.8880174,31.2517471 C62.3028231,32.1204477 62.0471557,33.553889 62.0107941,34.4015681 L55.4657083,35.5299131 C55.5020699,32.342026 56.8917643,29.7989887 58.1712377,28.2985058 C59.8171677,26.3690699 62.0471557,24.997557 65.0822119,24.4742912 C68.7388241,23.8436452 70.8591592,24.9038123 71.9562564,25.8117152 C72.9437008,26.6292824 74.3328271,28.2541901 74.3328271,31.3988978 C74.3328271,34.4703142 72.9067711,36.8372252 70.7131447,39.2637918 L66.6179208,43.7726266 L74.5890626,42.3982728 L74.5890626,47.7735356 Z" id="Fill-50"></path>
                        <path d="M86.7657629,36.2027726 L86.7657629,26.2567468 L81.0251773,37.1930572 L86.7657629,36.2027726 Z M92.6160014,35.1943071 L95.5777664,34.6835407 L95.5777664,39.5474689 L92.6160014,40.0576672 L92.6160014,44.6653599 L86.7657629,45.6738254 L86.7657629,41.0667008 L74.9550647,43.1035168 L74.9550647,39.0440884 L84.3522625,21.7001875 L92.6160014,20.2752685 L92.6160014,35.1943071 Z" id="Fill-52"></path>
                    </g>
                </g>
            </g>
        </g>
    </g>
</svg>