<svg xmlns="http://www.w3.org/2000/svg" xmlns:xlink="http://www.w3.org/1999/xlink" width="33" height="33" viewBox="0 0 33 33">
    <defs>
        <path id="bilet-iptal@3x-a" d="M16.5,12.3333333 L16.5,10.6666667 L9.83333333,6.5 L9.83333333,1.91666667 C9.83333333,1.225 9.275,0.666666667 8.58333333,0.666666667 C7.89166667,0.666666667 7.33333333,1.225 7.33333333,1.91666667 L7.33333333,4.50833333 L14.5416667,11.7166667 L16.5,12.3333333 Z M14.6083333,16.5 L15.7833333,15.325 L2.675,2.21666667 L1.5,3.39166667 L5.65833333,7.55 L0.666666667,10.6666667 L0.666666667,12.3333333 L7.33333333,10.25 L7.33333333,14.8333333 L5.66666667,16.0833333 L5.66666667,17.3333333 L8.58333333,16.5 L11.5,17.3333333 L11.5,16.0833333 L9.83333333,14.8333333 L9.83333333,11.725 L14.6083333,16.5 Z"></path>
    </defs>
    <g fill="none" fill-rule="evenodd">
        <circle cx="16.5" cy="16.5" r="16.5" fill="#EFEFEF"></circle>
        <use fill="#939D9A" fill-rule="nonzero" transform="translate(8 8)" xlink:href="#bilet-iptal@3x-a"></use>
    </g>
</svg>