<?xml version="1.0" encoding="UTF-8"?>
<svg width="24px" height="24px" viewBox="0 0 24 24" version="1.1" xmlns="http://www.w3.org/2000/svg" xmlns:xlink="http://www.w3.org/1999/xlink">
    <title>7F4447C1-1A60-4325-8195-D1C6033D516D</title>
    <defs>
        <path d="M4.129,8.74916524 L5.345,9.96516524 L5,11 L6.379,10.9991652 L14.378,18.9991652 L6,19 L6,20 C6,20.55 5.55,21 5,21 L5,21 L4,21 C3.45,21 3,20.55 3,20 L3,20 L3,12 L4.129,8.74916524 Z M17.5,5 C18.16,5 18.72,5.42 18.92,6.01 L18.92,6.01 L21,12 L21,18.5501652 L18.2495224,15.8003496 C18.6591558,15.5642104 18.9459917,15.1400355 18.9931488,14.6447059 L19,14.5 C19,13.67 18.33,13 17.5,13 C16.9434945,13 16.4589178,13.3012018 16.1999948,13.7498804 L13.448,10.9991652 L19,11 L17.5,6.5 L8.948,6.49916524 L7.448,4.99916524 Z M6.5,13 C5.67,13 5,13.67 5,14.5 C5,15.33 5.67,16 6.5,16 C7.33,16 8,15.33 8,14.5 C8,13.67 7.33,13 6.5,13 Z" id="path-1"></path>
    </defs>
    <g id="Page-1" stroke="none" stroke-width="1" fill="none" fill-rule="evenodd">
        <g id="Araç-Kiralama-Rezervasyon-Detay" transform="translate(-990.000000, -132.000000)">
            <g id="Group-16" transform="translate(156.000000, 96.000000)">
                <g id="Buttons/Outline/3-Custom/Left-icon/1-Default" transform="translate(765.000000, 23.000000)">
                    <g id="icon/maps/directions_car_24px" transform="translate(69.000000, 13.000000)">
                        <mask id="mask-2" fill="white">
                            <use xlink:href="#path-1"></use>
                        </mask>
                        <use id="Combined-Shape" fill="#0087FF" fill-rule="nonzero" xlink:href="#path-1"></use>
                        <rect id="Rectangle" fill="#0087FF" transform="translate(12.060660, 13.060660) rotate(45.000000) translate(-12.060660, -13.060660) " x="-1.43933983" y="12.0606602" width="27" height="2" rx="1"></rect>
                    </g>
                </g>
            </g>
        </g>
    </g>
</svg>