<svg width="16" height="14" xmlns="http://www.w3.org/2000/svg" xmlns:xlink="http://www.w3.org/1999/xlink"><defs><path d="M15.767 5.008a1.245 1.245 0 0 0-1.184-.841H5.417c-.55 0-1.009.35-1.184.841L2.5 10v6.667c0 .458.375.833.833.833h.834A.836.836 0 0 0 5 16.667v-.834h10v.834c0 .458.375.833.833.833h.834a.836.836 0 0 0 .833-.833V10l-1.733-4.992zm-10.35 8.325c-.692 0-1.25-.558-1.25-1.25 0-.691.558-1.25 1.25-1.25.691 0 1.25.559 1.25 1.25 0 .692-.559 1.25-1.25 1.25zm9.166 0c-.691 0-1.25-.558-1.25-1.25 0-.691.559-1.25 1.25-1.25.692 0 1.25.559 1.25 1.25 0 .692-.558 1.25-1.25 1.25zM4.167 9.167l1.25-3.75h9.166l1.25 3.75H4.167z" id="a"/></defs><g transform="translate(-2 -4)" fill="none" fill-rule="evenodd"><mask id="b" fill="#fff"><use xlink:href="#a"/></mask><g mask="url(#b)" fill="#53605E"><path d="M0 0h20v20H0z"/></g></g></svg>