<?xml version="1.0" encoding="UTF-8"?>
<svg width="25px" height="30px" viewBox="0 0 25 30" version="1.1" xmlns="http://www.w3.org/2000/svg" xmlns:xlink="http://www.w3.org/1999/xlink">
    <title>32910DCE-6511-428F-94C1-10ABBE78FC6E</title>
    <defs>
        <polygon id="path-1" points="0 0 16.137957 0 16.137957 2.94444261 0 2.94444261"></polygon>
    </defs>
    <g id="Page-1" stroke="none" stroke-width="1" fill="none" fill-rule="evenodd">
        <g id="Araç-Kiralama-Ek-Hizmet-ve-Güvence" transform="translate(-194.000000, -1038.000000)">
            <g id="Group-4-Copy-8" transform="translate(160.000000, 1008.000000)">
                <g id="cocukkoltugu" transform="translate(16.000000, 15.000000)">
                    <g id="Group-10" transform="translate(18.000000, 15.000000)">
                        <g id="Group-3" transform="translate(1.736145, 27.055557)">
                            <mask id="mask-2" fill="white">
                                <use xlink:href="#path-1"></use>
                            </mask>
                            <g id="Clip-2"></g>
                            <path d="M16.137957,0 L16.137957,0.488526403 L16.137957,1.54313383 L16.137957,2.16043817 C16.137957,2.59342327 15.7848192,2.94445108 15.3492314,2.94445108 L0.788725645,2.94445108 C0.353137854,2.94445108 0,2.59342327 0,2.16043817 L0,1.54313383 L0,0.488526403 L0,0 L16.137957,0 Z" id="Fill-1" fill="#2DC44D" mask="url(#mask-2)"></path>
                        </g>
                        <path d="M5.5040565,19.5044801 C9.3470924,19.5044801 12.7105047,21.3457251 14.4040503,19.7860813 C16.0975959,18.2265222 14.8847811,14.8779573 14.7109378,12.0462822 C14.5084755,8.74496128 14.2989437,5.33120312 16.0467461,2.81660448 C17.6648261,0.488611069 19.4299192,0 20.6256988,0 C22.5451299,0 23.9348543,1.230206 23.9931144,1.28252997 C24.2605656,1.52315251 24.3781079,1.88764231 24.3011092,2.23790812 L19.3081181,24.9726738 C19.2071851,25.4323289 18.7978314,25.7599041 18.324596,25.7599041 L9.15715091,25.7599041 L5.14265662,25.7599041 L1.07841981,25.7599041 C0.548116796,25.7599041 0.108525753,25.350795 0.0738375544,24.8247613 C0.0670452576,24.7211293 1.66102061,19.5044801 5.5040565,19.5044801" id="Fill-4" fill="#2DC44D"></path>
                        <path d="M13.5207883,12.1184774 C13.5703605,12.927721 13.6965055,13.7573692 13.8184769,14.5597547 C14.0904424,16.3494378 14.3717773,18.1999961 13.5936134,18.9166144 C13.4362942,19.061479 13.1676505,19.2277642 12.4803689,19.2277642 C11.778863,19.2277642 10.8665477,19.0504723 9.90065685,18.8628511 C8.58946435,18.6079199 7.10306573,18.3192067 5.50406502,18.3192067 C3.95591412,18.3192067 2.5012008,18.994677 1.2969888,20.2727197 C1.05611233,20.5283282 0.837040798,20.7961287 0.637815174,21.0653686 C0.387654567,20.8795253 0.188769644,20.6202761 0.0823853752,20.3034536 C-0.195968341,19.4755834 0.253928944,18.5803186 1.08677553,18.3037974 L4.17754092,17.2777226 C4.17754092,17.2777226 5.10459166,16.8309368 6.66057871,17.0987374 C8.21665094,17.3666226 9.54896698,17.5959844 9.54896698,17.5959844 C9.57716009,17.6008951 9.60441627,17.6083458 9.63201315,17.6146111 L10.473718,14.5368948 L7.80601959,15.0648758 C7.70261646,15.0853651 7.59870228,15.0953558 7.49546951,15.0953558 C7.04557223,15.0953558 6.61083619,14.9052792 6.30607805,14.5634801 L3.8152041,11.7713442 C3.23251813,11.1182259 3.29290759,10.1194138 3.94978148,9.54029411 C4.60691089,8.96108976 5.61189727,9.0211184 6.1944129,9.67415204 L8.079859,11.7877696 L12.6945003,10.8743861 C12.9319697,10.7838774 13.1823858,10.7246955 13.4393605,10.6995495 C13.4631245,11.1750372 13.491999,11.6490856 13.5207883,12.1184774" id="Fill-6" fill="#2DC44D"></path>
                        <path d="M15.0657622,2.14281904 C14.1623051,3.44245167 13.6370274,5.04163481 13.4596919,7.03163907 C13.3804786,7.92072326 13.3740905,8.82953477 13.4006652,9.73876961 C11.7171704,9.23212455 10.4909831,7.67984672 10.4909831,5.84114171 C10.4909831,3.59112626 12.3259201,1.76723791 14.5893753,1.76723791 C14.8294852,1.76723791 15.0643994,1.78891257 15.2930957,1.82862121 C15.217034,1.93039049 15.1410574,2.0343611 15.0657622,2.14281904" id="Fill-8" fill="#2DC44D"></path>
                    </g>
                </g>
            </g>
        </g>
    </g>
</svg>