<?xml version="1.0" encoding="UTF-8"?>
<svg width="17px" height="16px" viewBox="0 0 17 16" version="1.1" xmlns="http://www.w3.org/2000/svg" xmlns:xlink="http://www.w3.org/1999/xlink">
    <title>E8E70382-8F29-4FA2-9A15-475B54179F8A</title>
    <defs>
        <path d="M15,12.5 L15,13.3333333 C15,14.25 14.25,15 13.3333333,15 L1.66666667,15 C0.741666667,15 0,14.25 0,13.3333333 L0,1.66666667 C0,0.75 0.741666667,0 1.66666667,0 L13.3333333,0 C14.25,0 15,0.75 15,1.66666667 L15,2.5 L7.5,2.5 C6.575,2.5 5.83333333,3.25 5.83333333,4.16666667 L5.83333333,10.8333333 C5.83333333,11.75 6.575,12.5 7.5,12.5 L15,12.5 Z M7.5,10.8333333 L15.8333333,10.8333333 L15.8333333,4.16666667 L7.5,4.16666667 L7.5,10.8333333 Z M10.8333333,8.75 C10.1416667,8.75 9.58333333,8.19166667 9.58333333,7.5 C9.58333333,6.80833333 10.1416667,6.25 10.8333333,6.25 C11.525,6.25 12.0833333,6.80833333 12.0833333,7.5 C12.0833333,8.19166667 11.525,8.75 10.8333333,8.75 Z" id="path-1"></path>
    </defs>
    <g id="Page-1" stroke="none" stroke-width="1" fill="none" fill-rule="evenodd">
        <g id="Araç-Kiralama-Search-Result" transform="translate(-738.000000, -334.000000)">
            <g id="icon/action/account_balance_wallet_24px" transform="translate(738.500000, 334.500000)">
                <mask id="mask-2" fill="white">
                    <use xlink:href="#path-1"></use>
                </mask>
                <g fill-rule="nonzero"></g>
                <g id="↳-Color" mask="url(#mask-2)" fill="#53605E">
                    <g transform="translate(-2.500000, -2.500000)" id="Rectangle">
                        <rect x="0" y="0" width="20" height="20"></rect>
                    </g>
                </g>
            </g>
        </g>
    </g>
</svg>