<?xml version="1.0" encoding="UTF-8"?>
<svg width="20px" height="20px" viewBox="0 0 20 20" version="1.1" xmlns="http://www.w3.org/2000/svg" xmlns:xlink="http://www.w3.org/1999/xlink">
    <title>7910B07B-9AF6-4B8D-94CB-3FC001C8DB5D</title>
    <g id="Page-1" stroke="none" stroke-width="1" fill="none" fill-rule="evenodd">
        <g id="Araç-Kiralama-Search-Result" transform="translate(-879.000000, -1609.000000)">
            <g id="Group-19" transform="translate(448.000000, 1191.000000)">
                <g id="Group-64" transform="translate(0.000000, 236.000000)">
                    <g id="Group-34" transform="translate(25.000000, 25.000000)">
                        <g transform="translate(406.000000, 156.000000)">
                            <g id="-Round-/-AV-/-recent_actors" transform="translate(0.000000, 1.000000)">
                                <rect id="Rectangle-Copy-42" x="0" y="0" width="20" height="20"></rect>
                                <path d="M17.8571429,3.33333333 L2.14285714,3.33333333 C1.42261905,3.33333333 0.833333333,3.76190476 0.833333333,4.28571429 L0.833333333,15.7142857 C0.833333333,16.2380952 1.42261905,16.6666667 2.14285714,16.6666667 L17.8571429,16.6666667 C18.577381,16.6666667 19.1666667,16.2380952 19.1666667,15.7142857 L19.1666667,4.28571429 C19.1666667,3.76190476 18.577381,3.33333333 17.8571429,3.33333333 Z M6.66666667,6.45833333 C7.7,6.45833333 8.54166667,7.3 8.54166667,8.33333333 C8.54166667,9.36666667 7.7,10.2083333 6.66666667,10.2083333 C5.63333333,10.2083333 4.79166667,9.36666667 4.79166667,8.33333333 C4.79166667,7.3 5.63333333,6.45833333 6.66666667,6.45833333 Z M6.66666667,11.6666667 C7.91666667,11.6666667 10.4166667,12.2916667 10.4166667,13.5416667 L10.4166667,14.1666667 L2.91666667,14.1666667 L2.91666667,13.5416667 C2.91666667,12.2916667 5.41666667,11.6666667 6.66666667,11.6666667 Z M16.8518519,10 C17.2083333,10 17.5,10.375 17.5,10.8333333 C17.5,11.2916667 17.2083333,11.6666667 16.8518519,11.6666667 L12.3148148,11.6666667 C11.9583333,11.6666667 11.6666667,11.2916667 11.6666667,10.8333333 C11.6666667,10.375 11.9583333,10 12.3148148,10 L16.8518519,10 Z M16.8518519,6.66666667 C17.2083333,6.66666667 17.5,7.04166667 17.5,7.5 C17.5,7.95833333 17.2083333,8.33333333 16.8518519,8.33333333 L12.3148148,8.33333333 C11.9583333,8.33333333 11.6666667,7.95833333 11.6666667,7.5 C11.6666667,7.04166667 11.9583333,6.66666667 12.3148148,6.66666667 L16.8518519,6.66666667 Z" id="🔹Icon-Color" fill="#1B2F6F"></path>
                            </g>
                        </g>
                    </g>
                </g>
            </g>
        </g>
    </g>
</svg>