<svg width="24" height="24" xmlns="http://www.w3.org/2000/svg" xmlns:xlink="http://www.w3.org/1999/xlink"><defs><path d="M13.594 13.268L11.49 9.83h-.07c.08.452.15.878.152 1.313l.006 2.13-2.28.007-.017-6.557 2.287-.006 2.15 3.629h.07c-.098-.548-.204-1.112-.205-1.67l-.006-1.964 2.28-.007.017 6.557-2.279.006zm-9.45.026l-.017-6.557 4.41-.012.004 1.791-2.008.006.001.626 1.835-.005.005 1.704-1.835.005.001.644 2.079-.006.005 1.792-4.48.012zM10.34 1.712A8.236 8.236 0 0 0 4.379 3.9a8.24 8.24 0 0 0-2.667 5.76A8.24 8.24 0 0 0 3.9 15.62a8.237 8.237 0 0 0 5.761 2.668 8.229 8.229 0 0 0 5.96-2.188 8.24 8.24 0 0 0 2.667-5.762 8.239 8.239 0 0 0-2.188-5.96 8.24 8.24 0 0 0-5.761-2.666zm8.907 8.666a9.193 9.193 0 0 1-2.975 6.427 9.187 9.187 0 0 1-6.649 2.441 9.197 9.197 0 0 1-6.428-2.975 9.196 9.196 0 0 1-2.44-6.65 9.193 9.193 0 0 1 2.975-6.427 9.2 9.2 0 0 1 6.649-2.44 9.194 9.194 0 0 1 6.427 2.975 9.193 9.193 0 0 1 2.441 6.649zm.546-2.415a9.922 9.922 0 0 0-1.491-3.54 10.056 10.056 0 0 0-2.033-2.216A9.947 9.947 0 0 0 10.408.01 9.96 9.96 0 0 0 3.71 2.226 10.009 10.009 0 0 0 .833 6a10.002 10.002 0 0 0 7.32 13.829 10.056 10.056 0 0 0 1.438.162 9.984 9.984 0 0 0 8.05-3.54 9.96 9.96 0 0 0 2.35-6.043c.035-.84-.035-1.659-.199-2.445z" id="a"/></defs><g fill="none" fill-rule="evenodd"><path d="M0 0h24v24H0z"/><use fill="#2dc44d" xlink:href="#a" transform="translate(2 2)"/></g></svg>