<svg viewBox="0 0 124 18">
  <defs/>
  <g fill="#2DC44D" fill-rule="evenodd">
    <path d="M0 .294v17.444h12.09v-4.766H6.48V11.26h4.953V6.725H6.48V5.059h5.423V.294zM13.908 17.737h6.151V12.07c0-1.157-.187-2.29-.399-3.494h.188l5.658 9.161h6.15V.294h-6.15v5.228c0 1.481.282 2.985.54 4.442h-.188L20.083.294h-6.175v17.443zM50.045.294l6.174 9.924v7.52h6.292v-7.52L68.568.294h-7.23L60.07 3.21c-.235.532-.4 1.087-.587 1.642h-.188L57.323.294h-7.278zM76.003 7.525v4.018h2.84c-.298 1.039-1.558 1.49-2.542 1.49-2.04 0-3.23-1.76-3.23-3.634 0-2.054 1.237-3.95 3.481-3.95 1.008 0 1.902.451 2.382 1.309L84.8 4.636C83.447 1.724 79.324.257 76.323.257c-5.428 0-9.574 3.341-9.574 8.894 0 5.461 4.26 8.667 9.529 8.667 2.68 0 5.498-1.061 7.329-3.025 2.039-2.167 2.039-4.492 2.084-7.268h-9.688zM97.26.294V9.89c0 1.349-.046 2.537-1.738 2.537-1.693 0-1.74-1.188-1.74-2.537V.294H87.43v10.19c0 5.027 3.2 7.312 8.093 7.312 4.892 0 8.092-2.285 8.092-7.312V.294H97.26zM43.47.294V9.89c0 1.349-.046 2.537-1.739 2.537-1.692 0-1.739-1.188-1.739-2.537V.294H33.64v10.19c0 5.027 3.2 7.312 8.092 7.312s8.092-2.285 8.092-7.312V.294H43.47zM105.822 17.737h6.15V12.07c0-1.157-.187-2.29-.399-3.494h.189l5.657 9.161h6.15V.294h-6.15v5.228c0 1.481.282 2.985.54 4.442h-.187l-5.776-9.67h-6.174v17.443z"/>
  </g>
</svg>