<?xml version="1.0" encoding="UTF-8"?>
<svg width="20px" height="20px" viewBox="0 0 20 20" version="1.1" xmlns="http://www.w3.org/2000/svg" xmlns:xlink="http://www.w3.org/1999/xlink">
    <title>DA29FE1A-1F0B-49DA-89E1-A05F7C7B155D</title>
    <defs>
        <path d="M7.38630344,5.15291582 C7.38630344,5.28983742 7.27573106,5.40095211 7.1398823,5.40095211 L2.06623811,5.40095211 C1.92992956,5.40095211 1.81974623,5.28983742 1.81974623,5.15291582 L1.81974623,1.27600929 C1.81974623,1.13909948 1.92992956,1.02798479 2.06623811,1.02798479 L7.1398823,1.02798479 C7.27573106,1.02798479 7.38630344,1.13909948 7.38630344,1.27600929 L7.38630344,5.15291582 Z M12.9609364,4.85251121 L12.8076629,3.55539898 C12.7939873,3.44002833 12.7351937,3.33484368 12.6441799,3.26289323 L11.16392,2.09329469 C11.0495043,2.00296463 10.9042005,1.97944486 10.7740224,2.0166285 L9.29050862,0.840958428 L8.8409097,1.41278941 L10.3406456,2.60120377 C10.3410229,2.61243903 10.3414827,2.62367429 10.3427559,2.63490954 L10.5271415,4.29343631 C10.5401215,4.41002127 10.5990801,4.51643201 10.6909192,4.58898371 L11.9765368,5.6051202 C12.059864,5.67099912 12.1596373,5.70135672 12.2579134,5.69877485 C12.6478818,6.41252611 12.8586755,7.22069834 12.8586755,8.05847364 L12.8826079,10.9928564 C12.9290933,11.6973531 12.3550459,12.3745102 11.5968252,12.3745102 C10.8857973,12.3745102 10.3075883,11.7931298 10.3075883,11.0781642 L10.3075883,7.34638468 C10.3075883,6.31690264 9.46802098,5.58083412 8.58173247,5.58220169 L8.37184654,5.58220169 L8.37184654,0.8676849 C8.37184654,0.388294269 7.985191,0 7.50894812,0 L1.62366564,0 C1.14704551,0 0.76076722,0.388294269 0.76076722,0.8676849 L0.76076722,13.6872669 C0.76076722,13.8241885 0.6503481,13.9319668 0.514192814,13.9319668 L0.24649188,13.9319668 C0.110336594,13.9319668 0,14.0395918 0,14.1766549 L0,14.7522702 C0,14.8890386 0.110336594,15 0.24649188,15 L8.8858861,15 C9.02219464,15 9.13277881,14.8890386 9.13277881,14.7522702 L9.13277881,14.1766549 C9.13277881,14.0395918 9.02219464,13.9319668 8.8858861,13.9319668 L8.61833842,13.9319668 C8.48210061,13.9319668 8.37184654,13.8241885 8.37184654,13.6872669 L8.37184654,6.56509218 L8.51674953,6.56509218 C9.09268321,6.56509218 9.3212199,7.0282135 9.3212199,7.34638468 L9.3212199,11.0781642 C9.3212199,12.3417357 10.3402684,13.3665138 11.5968252,13.3665138 C12.8582275,13.3665138 13.9297268,12.2993766 13.8696482,10.9928564 L13.872065,8.05847364 C13.872065,6.92302886 13.5513002,5.83280805 12.9636597,4.89819497 C12.9634239,4.88302207 12.9627519,4.86783738 12.9609364,4.85251121 L12.9609364,4.85251121 Z" id="path-1"></path>
    </defs>
    <g id="Page-1" stroke="none" stroke-width="1" fill="none" fill-rule="evenodd">
        <g id="Araç-Kiralama-Search-Result" transform="translate(-736.000000, -267.000000)">
            <g id="icon_fuel" transform="translate(736.000000, 267.000000)">
                <rect id="Rectangle" stroke-opacity="0.01" stroke="#FFFFFF" stroke-width="0.1" opacity="0.2" x="0.05" y="0.05" width="19.9" height="19.9"></rect>
                <g id="person" transform="translate(3.333333, 2.500000)">
                    <mask id="mask-2" fill="white">
                        <use xlink:href="#path-1"></use>
                    </mask>
                    <use id="Fill-1" fill="#000000" xlink:href="#path-1"></use>
                    <rect id="Rectangle" fill="#53605E" mask="url(#mask-2)" x="-3.06396748" y="-2.5" width="20" height="20"></rect>
                </g>
            </g>
        </g>
    </g>
</svg>