<?xml version="1.0" encoding="UTF-8"?>
<svg width="20px" height="20px" viewBox="0 0 20 20" version="1.1" xmlns="http://www.w3.org/2000/svg" xmlns:xlink="http://www.w3.org/1999/xlink">
    <title>9BAC1DDD-5DDF-4EB7-8809-3A48AB5B0D9B</title>
    <defs>
        <path d="M14.1666667,1.93006358 C14.1666667,0.863264801 13.3034019,0 12.2330939,0 C11.1698043,0 10.3030303,0.863264801 10.3030303,1.93006358 C10.3030303,2.76876393 10.8434481,3.47762365 11.5909091,3.74432334 L11.5909091,6.43939394 L7.73078193,6.43939394 L7.73078193,3.74432334 C8.47473371,3.47762365 9.01515152,2.76876393 9.01515152,1.93006358 C9.01515152,0.863264801 8.14837751,0 7.08157873,0 C6.01828916,0 5.15151515,0.863264801 5.15151515,1.93006358 C5.15151515,2.76876393 5.68842375,3.47762365 6.43939394,3.74432334 L6.43939394,6.43939394 L2.57575758,6.43939394 L2.57575758,3.74432334 C3.32321856,3.47762365 3.86363636,2.76876393 3.86363636,1.93006358 C3.86363636,0.863264801 2.99686236,0 1.93006358,0 C0.863264801,0 0,0.863264801 0,1.93006358 C0,2.76876393 0.540417802,3.47762365 1.28787879,3.74432334 L1.28787879,10.4188341 C0.540417802,10.689043 0,11.3943935 0,12.2366031 C0,13.2998927 0.863264801,14.1666667 1.93006358,14.1666667 C2.99686236,14.1666667 3.86363636,13.2998927 3.86363636,12.2366031 C3.86363636,11.3943935 3.32321856,10.689043 2.57575758,10.4223433 L2.57575758,7.72727273 L6.43939394,7.72727273 L6.43939394,10.4188341 C5.68842375,10.689043 5.15151515,11.3943935 5.15151515,12.2366031 C5.15151515,13.2998927 6.01828916,14.1666667 7.08157873,14.1666667 C8.14837751,14.1666667 9.01515152,13.2998927 9.01515152,12.2366031 C9.01515152,11.3943935 8.47473371,10.689043 7.73078193,10.4223433 L7.73078193,7.72727273 L11.5909091,7.72727273 L12.8822971,7.72727273 L12.8822971,6.43939394 L12.8822971,3.74432334 C13.6297581,3.47762365 14.1666667,2.76876393 14.1666667,1.93006358" id="path-1"></path>
    </defs>
    <g id="Page-1" stroke="none" stroke-width="1" fill="none" fill-rule="evenodd">
        <g id="Araç-Kiralama-Search-Result" transform="translate(-829.000000, -267.000000)">
            <g id="icon_gear" transform="translate(829.000000, 267.000000)">
                <rect id="Rectangle" stroke-opacity="0.01" stroke="#FFFFFF" stroke-width="0.1" opacity="0.2" x="0.05" y="0.05" width="19.9" height="19.9"></rect>
                <g id="person" transform="translate(3.333333, 3.333333)">
                    <mask id="mask-2" fill="white">
                        <use xlink:href="#path-1"></use>
                    </mask>
                    <use id="Fill-1" fill="#39434E" xlink:href="#path-1"></use>
                    <rect id="Rectangle" fill="#53605E" mask="url(#mask-2)" x="-2.91666667" y="-2.91666667" width="20" height="20"></rect>
                </g>
            </g>
        </g>
    </g>
</svg>