<?xml version="1.0" encoding="UTF-8"?>
<svg width="80px" height="80px" viewBox="0 0 80 80" version="1.1" xmlns="http://www.w3.org/2000/svg" xmlns:xlink="http://www.w3.org/1999/xlink">
    <title>3C3FB9E9-D2ED-4B77-8BAA-9DC30ED4ABD4</title>
    <g id="Page-1" stroke="none" stroke-width="1" fill="none" fill-rule="evenodd">
        <g id="Kasko-Değer-Listesi" transform="translate(-944.000000, -695.000000)">
            <g id="Açıklamalar" transform="translate(0.000000, 620.000000)">
                <g id="Group-9" transform="translate(928.000000, 64.000000)">
                    <g id="icon" transform="translate(16.000000, 11.000000)">
                        <rect id="Rectangle" x="0" y="0" width="80" height="80"></rect>
                        <g id="Group-14" transform="translate(12.000000, 11.000000)">
                            <polygon id="Fill-4" fill="#2DC44D" points="7.77085188 21.0157521 7.77284406 23.3125557 35.7459187 23.2781036 35.7439265 20.9813001"></polygon>
                            <polygon id="Fill-5" fill="#2DC44D" points="35.7439265 24.866726 7.77085188 24.9011781 7.77284406 27.1979816 35.7459187 27.1635295"></polygon>
                            <polygon id="Fill-6" fill="#2DC44D" points="7.77284406 31.0834075 35.7459187 31.0489555 35.7439265 28.752152 7.77085188 28.786604"></polygon>
                            <polygon id="Fill-7" fill="#2DC44D" points="35.7439265 32.6375779 7.77085188 32.67203 7.77284406 34.9688335 35.7459187 34.9343814"></polygon>
                            <polygon id="Fill-8" fill="#2DC44D" points="7.77390617 38.9551796 24.866726 38.9207275 24.8636717 36.623924 7.77085188 36.6583761"></polygon>
                            <polygon id="Rectangle-23" fill="#E5F6ED" points="37.300089 1.55417038 42.9516177 6.81829585 48.9563669 12.433363 37.6533096 12.433363"></polygon>
                            <polygon id="Fill-9" fill="#2DC44D" points="7.77085188 11.6562778 20.2042149 11.6562778 20.2042149 9.32502226 7.77085188 9.32502226"></polygon>
                            <path d="M37.2769905,3.21431409 L44.8687801,10.2964121 L37.2769905,10.2964121 L37.2769905,3.21431409 Z M0,0 L0,60.6126447 L9.25255621,60.6126447 L9.25255621,58.7185292 L2.00575682,58.7185292 L2.00575682,1.89411555 L35.2712337,1.89411555 L35.2712337,12.1905277 L46.1735249,12.1905277 L46.1735249,58.7185292 L9.25255621,58.7185292 L9.25255621,60.6126447 L48.1792817,60.6126447 L48.1792817,10.7216411 L36.6862951,0 L0,0 Z" id="Fill-3" fill="#2DC44D"></path>
                            <g id="Group-12" transform="translate(35.745919, 44.293856)">
                                <ellipse id="Oval-3" fill="#E5F6ED" cx="12.3793988" cy="11.6562778" rx="9.70277201" ry="9.65805877"></ellipse>
                                <g id="Group-5" transform="translate(0.617683, 0.000000)" fill="#2DC44D">
                                    <path d="M11.5011306,2.08147818 C6.31202959,2.08147818 2.09111466,6.28398264 2.09111466,11.44813 C2.09111466,16.6122774 6.31202959,20.8147818 11.5011306,20.8147818 C16.6902316,20.8147818 20.9111466,16.6122774 20.9111466,11.44813 C20.9111466,6.28398264 16.6902316,2.08147818 11.5011306,2.08147818 M11.5011306,22.89626 C5.15982541,22.89626 -5.30066146e-13,17.7602126 -5.30066146e-13,11.44813 C-5.30066146e-13,5.13604742 5.15982541,0 11.5011306,0 C17.8424358,0 23.0022612,5.13604742 23.0022612,11.44813 C23.0022612,17.7602126 17.8424358,22.89626 11.5011306,22.89626" id="Fill-5"></path>
                                    <path d="M10.2746919,16.0138524 C10.0070292,16.0138524 9.73936651,15.91186 9.53548283,15.7089159 L5.35325352,11.5459595 L6.83167158,10.0743544 L10.2746919,13.5015082 L15.8088268,7.99287622 L17.2872449,9.4644813 L11.0139009,15.7089159 C10.8100172,15.91186 10.5423545,16.0138524 10.2746919,16.0138524" id="Fill-7"></path>
                                </g>
                            </g>
                            <path d="M39.5433149,22.5354705 C39.4213124,22.5354705 39.2993099,22.4959457 39.2063783,22.4172995 L37.300089,20.8040436 L37.9739623,20.2337576 L39.5433149,21.5618705 L42.0658121,19.4271297 L42.7396854,19.9974157 L39.8802515,22.4172995 C39.7873199,22.4959457 39.6653174,22.5354705 39.5433149,22.5354705" id="Fill-7-Copy" fill="#2DC44D"></path>
                            <path d="M39.5433149,26.4208964 C39.4213124,26.4208964 39.2993099,26.3813716 39.2063783,26.3027254 L37.300089,24.6894695 L37.9739623,24.1191836 L39.5433149,25.4472965 L42.0658121,23.3125557 L42.7396854,23.8828416 L39.8802515,26.3027254 C39.7873199,26.3813716 39.6653174,26.4208964 39.5433149,26.4208964" id="Fill-7-Copy-2" fill="#2DC44D"></path>
                            <path d="M39.5433149,30.3063224 C39.4213124,30.3063224 39.2993099,30.2667976 39.2063783,30.1881514 L37.300089,28.5748955 L37.9739623,28.0046095 L39.5433149,29.3327224 L42.0658121,27.1979816 L42.7396854,27.7682675 L39.8802515,30.1881514 C39.7873199,30.2667976 39.6653174,30.3063224 39.5433149,30.3063224" id="Fill-7-Copy-3" fill="#2DC44D"></path>
                            <path d="M39.5433149,34.1917483 C39.4213124,34.1917483 39.2993099,34.1522235 39.2063783,34.0735773 L37.300089,32.4603214 L37.9739623,31.8900355 L39.5433149,33.2181484 L42.0658121,31.0834075 L42.7396854,31.6536935 L39.8802515,34.0735773 C39.7873199,34.1522235 39.6653174,34.1917483 39.5433149,34.1917483" id="Fill-7-Copy-4" fill="#2DC44D"></path>
                        </g>
                    </g>
                </g>
            </g>
        </g>
    </g>
</svg>