<?xml version="1.0" encoding="UTF-8"?>
<svg width="80px" height="80px" viewBox="0 0 80 80" version="1.1" xmlns="http://www.w3.org/2000/svg" xmlns:xlink="http://www.w3.org/1999/xlink">
    <title>3FAFA1A1-6890-4974-9F2A-76A829D282B8</title>
    <g id="Page-1" stroke="none" stroke-width="1" fill="none" fill-rule="evenodd">
        <g id="Kasko-Değer-Listesi" transform="translate(-560.000000, -695.000000)">
            <g id="Açıklamalar" transform="translate(0.000000, 620.000000)">
                <g id="Group-9" transform="translate(544.000000, 64.000000)">
                    <g id="icon" transform="translate(16.000000, 11.000000)">
                        <rect id="Rectangle" x="0" y="0" width="80" height="80"></rect>
                        <g id="flag" transform="translate(9.000000, 9.000000)" fill-rule="nonzero">
                            <path d="M5.8125,60.0625 L15.5,60.0625 L15.5,58.125 L5.8125,58.125 L5.8125,60.0625 Z M16.46875,62 L4.84375,62 C4.30803125,62 3.875,61.566 3.875,61.03125 L3.875,57.15625 C3.875,56.6215 4.30803125,56.1875 4.84375,56.1875 L16.46875,56.1875 C17.0044687,56.1875 17.4375,56.6215 17.4375,57.15625 L17.4375,61.03125 C17.4375,61.566 17.0044687,62 16.46875,62 L16.46875,62 Z" id="Fill-3" fill="#2DC44D"></path>
                            <path d="M31.96875,12.59375 C27.1608437,12.59375 23.25,16.5055625 23.25,21.3125 C23.25,26.1194375 27.1608437,30.03125 31.96875,30.03125 C36.7766562,30.03125 40.6875,26.1194375 40.6875,21.3125 C40.6875,16.5055625 36.7766562,12.59375 31.96875,12.59375" id="Fill-5-path" fill="#2DC44D"></path>
                            <path d="M31.96875,31.96875 C26.0932812,31.96875 21.3125,27.1879688 21.3125,21.3125 C21.3125,15.4370313 26.0932812,10.65625 31.96875,10.65625 C37.8442187,10.65625 42.625,15.4370313 42.625,21.3125 C42.625,27.1879688 37.8442187,31.96875 31.96875,31.96875" id="Fill-5-path" fill="#E5F6ED"></path>
                            <path d="M31.96875,31.96875 C26.0932812,31.96875 21.3125,27.1879688 21.3125,21.3125 C21.3125,15.4370313 26.0932812,10.65625 31.96875,10.65625 C37.8442187,10.65625 42.625,15.4370313 42.625,21.3125 C42.625,27.1879688 37.8442187,31.96875 31.96875,31.96875" id="Fill-5-path" stroke="#2DC44D" stroke-width="2"></path>
                            <path d="M45.53125,37.78125 L8.71875,37.78125 L8.71875,35.84375 L45.1301875,35.84375 L59.6614375,21.3125 L45.1301875,6.78125 L8.71875,6.78125 L8.71875,4.84375 L45.53125,4.84375 C45.7889375,4.84375 46.035,4.94546875 46.2161562,5.12759375 L61.7161562,20.6275938 C62.0949375,21.006375 62.0949375,21.618625 61.7161562,21.9974062 L46.2161562,37.4974062 C46.035,37.6795313 45.7889375,37.78125 45.53125,37.78125" id="Fill-6" fill="#2DC44D"></path>
                            <path d="M31,25.1875 C30.752,25.1875 30.504,25.0925625 30.3150937,24.9036563 L26.4400937,21.0286563 L27.8099062,19.6588438 L31,22.8489375 L36.1275937,17.7213438 L37.4974062,19.0911563 L31.6849062,24.9036563 C31.496,25.0925625 31.248,25.1875 31,25.1875" id="Fill-7" fill="#2DC44D"></path>
                            <path d="M12.59375,58.125 L8.71875,58.125 C8.18303125,58.125 7.75,57.691 7.75,57.15625 L7.75,2.90625 C7.75,1.3039375 9.0539375,0 10.65625,0 C12.2585625,0 13.5625,1.3039375 13.5625,2.90625 L13.5625,5.8125 L11.625,5.8125 L11.625,2.90625 C11.625,2.37246875 11.191,1.9375 10.65625,1.9375 C10.1215,1.9375 9.6875,2.37246875 9.6875,2.90625 L9.6875,56.1875 L11.625,56.1875 L11.625,36.8125 L13.5625,36.8125 L13.5625,57.15625 C13.5625,57.691 13.1294687,58.125 12.59375,58.125" id="Fill-11" fill="#2DC44D"></path>
                            <polygon id="Fill-12" fill="#2DC44D" points="11.625 33.90625 13.5625 33.90625 13.5625 8.71875 11.625 8.71875"></polygon>
                            <polygon id="Fill-13" fill="#2DC44D" points="0 62 62 62 62 60.0625 0 60.0625"></polygon>
                        </g>
                    </g>
                </g>
            </g>
        </g>
    </g>
</svg>