<?xml version="1.0" encoding="UTF-8"?>
<svg width="80px" height="80px" viewBox="0 0 80 80" version="1.1" xmlns="http://www.w3.org/2000/svg" xmlns:xlink="http://www.w3.org/1999/xlink">
    <title>BFFB1474-1D2A-4BC2-99E9-CCAE629B2F91</title>
    <g id="Page-1" stroke="none" stroke-width="1" fill="none" fill-rule="evenodd">
        <g id="Kasko-Değer-Listesi" transform="translate(-176.000000, -695.000000)">
            <g id="Açıklamalar" transform="translate(0.000000, 620.000000)">
                <g id="avantaj" transform="translate(160.000000, 64.000000)">
                    <g id="icon" transform="translate(16.000000, 11.000000)">
                        <rect id="Rectangle" x="0" y="0" width="80" height="80"></rect>
                        <g id="icon_sayisizsecenek" transform="translate(15.000000, 9.000000)">
                            <path d="M17.7864006,12.2320769 L30.195861,12.2320769 L39.0983001,16.3562454 L44.2239468,21.5801922 L49.8891353,32.8529194 L1.33037694,32.8529194 C2.27132105,28.1029375 3.17055732,24.8952508 4.02808574,23.2298596 C5.35198606,20.6587354 6.85420845,18.9134336 8.61419069,17.4560237 C11.4917467,15.0731707 14.54915,13.3318551 17.7864006,12.2320769 Z" id="Rectangle-20" fill="#E5F6ED"></path>
                            <polygon id="Rectangle-21" fill="#E5F6ED" points="31.9290466 38.1744272 42.5720621 38.1744272 40.443459 42.8307465 34.5898004 42.8307465"></polygon>
                            <polygon id="Rectangle-22" fill="#E5F6ED" points="1.99556541 45.4915004 20.6208426 45.4915004 20.6208426 56.7997044 1.99556541 56.7997044"></polygon>
                            <path d="M44.2206248,47.243864 L41.2224977,43.8657902 L43.3464906,43.8657902 L43.3464906,42.1378752 L40.9464553,42.1378752 C41.0192452,41.9596072 41.1176995,41.7961295 41.2378334,41.654059 L42.9554305,39.6669568 C43.099597,39.5114969 43.1801111,39.2956518 43.177798,39.0708261 L43.177798,37.0491656 C43.1759962,36.7756995 43.0593901,36.5193415 42.8634164,36.3579996 C42.6703356,36.1948374 42.420343,36.1436241 42.1886461,36.2197664 L39.8882928,37.0146073 L37.4729218,36.2197664 C37.335108,36.1753523 37.1890042,36.1753523 37.0511904,36.2197664 L34.4824625,37.0059677 L32.0057488,36.2111268 C31.7698123,36.1363748 31.5163766,36.1932038 31.3238182,36.3640392 C31.1312598,36.5348746 31.0227821,36.7991306 31.0319326,37.0750843 L31.0319326,39.174501 C31.0315622,39.4314698 31.132734,39.6752884 31.307975,39.8397483 L33.3169502,41.6886173 C33.4362712,41.8263517 33.5324009,41.987356 33.6006604,42.163794 L31.0779396,42.163794 L31.0779396,43.891709 L33.278611,43.891709 L30.2804838,47.2697828 C27.9208873,49.9156796 26.5983955,53.5149122 26.6075388,57.265771 L28.1411553,57.265771 C28.1331418,53.9756303 29.2926509,50.8183729 31.3616499,48.4966024 L34.3827805,45.0407724 C34.6834043,44.7062984 34.9116646,44.2983462 35.049883,43.8485111 L35.9316851,43.8485111 L34.5898123,47.1401891 L35.2875862,47.4944117 L35.98536,47.8572739 L36.1310491,47.4944117 L37.2505543,44.7815852 L38.3317204,47.4857721 L38.4774094,47.8399947 L39.1751833,47.4857721 L39.1751833,47.4857721 L39.8729571,47.1315496 L38.5540879,43.8398715 L39.4512256,43.8398715 C39.5913107,44.291225 39.8192453,44.7015471 40.1183281,45.0407724 L43.1394588,48.444765 C45.2099063,50.7654425 46.3696772,53.9234129 46.3599534,57.2139335 C46.3599534,58.9698476 45.0966054,60.3932971 43.5381867,60.3932971 L30.9782577,60.3932971 L30.9782577,62.1212121 L43.5381867,62.1212121 C45.9418217,62.1164566 47.8893016,59.9221764 47.8935698,57.2139335 C47.9027132,53.4630748 46.5802214,49.8638421 44.2206248,47.2179453 M39.3208723,42.1119565 L35.195572,42.1119565 C35.0671866,41.4549161 34.7713797,40.8543866 34.3444413,40.3840415 L32.5655014,38.7338827 L32.5655014,38.1809499 L34.2677629,38.7338827 C34.4055767,38.7782968 34.5516805,38.7782968 34.6894943,38.7338827 L37.2045473,37.9390418 L39.6352539,38.7338827 C39.7784123,38.7771517 39.9291626,38.7771517 40.072321,38.7338827 L41.6058899,38.2068686 L41.6058899,38.7338827 L40.1106603,40.4617977 C39.7021867,40.9342153 39.4342179,41.5380713 39.3438758,42.1897127" id="Shape" fill="#2DC44D" fill-rule="nonzero"></path>
                            <path d="M1.23673088,26.7549196 C3.68881265,24.9148549 6.90306651,24.9148549 9.35514828,26.7549196 L9.78003742,27.0664149 L10.3414981,26.6538941 C12.774645,24.865752 15.9357209,24.865752 18.3688678,26.6538941 L18.9227411,27.0579961 L20.6071231,25.9972284 C21.5027643,25.439207 22.4967474,25.1031633 23.5206486,25.0122298 L23.5206486,49.6708703 C23.5206486,51.9956554 25.2191249,53.8802661 27.3143016,53.8802661 C29.4094782,53.8802661 31.1079545,51.9956554 31.1079545,49.6708703 L29.5904933,49.6708703 C29.5904933,51.0657413 28.5714076,52.1965078 27.3143016,52.1965078 C26.0571955,52.1965078 25.0381098,51.0657413 25.0381098,49.6708703 L25.0381098,25.0290674 C26.0515651,25.1560613 27.0291439,25.5205011 27.9061114,26.0982539 L29.4235726,27.1000901 L30.0988428,26.620219 C32.5356282,24.8794179 35.6711019,24.9091819 38.0806887,26.6959881 L38.657324,27.1253465 L39.2415466,26.6959881 C41.6884903,24.9096743 44.8630984,24.9295942 47.2916782,26.7465008 L48.5587583,27.6809867 L48.5587583,26.0982539 C48.5587583,13.5795108 38.3007206,3.72952467 25.0381098,3.36751663 L25.0381098,0 L23.5206486,0 L23.5206486,3.36751663 C10.2732123,3.73794346 0,13.5879296 0,26.0982539 L0.0531111419,27.6304739 L1.23673088,26.7549196 Z M47.0412971,24.6081278 C44.6340834,23.351567 41.8427787,23.3763446 39.4539911,24.6754781 C39.1353243,16.559763 36.0928146,9.72370427 31.639066,6.15413664 C40.2127217,8.71344928 46.3812015,15.8441657 47.0412971,24.6081278 L47.0412971,24.6081278 Z M37.9365299,24.6081278 C35.5023124,23.2865729 32.6544573,23.2865729 30.2202397,24.6081278 C30.1064302,16.8796771 29.0593819,9.00810698 26.9425236,5.37118902 C33.0123683,7.14755405 37.5192281,14.8591671 37.9365299,24.5828714 L37.9365299,24.6081278 Z M24.1807442,5.05127494 L24.1807442,5.05127494 C25.9485865,5.05127494 28.4523975,12.0304532 28.6344928,24.6249654 C25.9232128,22.8637073 22.5710603,22.8412426 19.8408052,24.5660338 L19.711821,24.6502217 C19.9090909,12.0304532 22.4204892,5.05127494 24.1807442,5.05127494 L24.1807442,5.05127494 Z M18.2095344,24.6670593 C15.8194319,23.3512832 13.0123308,23.3512832 10.6222284,24.6670593 C11.0319429,14.9938678 15.5084534,7.29909229 21.5175998,5.47221452 C19.3628049,9.0922949 18.323344,16.9470274 18.2095344,24.6670593 L18.2095344,24.6670593 Z M16.8134701,6.14571785 C12.3900707,9.77421702 9.3779102,16.5850194 9.05924335,24.6670593 C6.70077825,23.3984137 3.95262034,23.3767654 1.57815965,24.6081278 C2.20031874,15.9030973 8.30051275,8.7976372 16.8134701,6.14571785 L16.8134701,6.14571785 Z" id="Shape" fill="#2DC44D" fill-rule="nonzero"></path>
                            <path d="M0.66518847,58.1300813 L20.6208426,58.1300813 L20.6208426,44.1611234 L0.703491069,44.1611234 L0.66518847,58.1300813 Z M2.19729243,45.9072432 L19.0887386,45.9072432 L19.0887386,56.3839616 L2.23559503,56.3839616 L2.19729243,45.9072432 Z" id="Shape" fill="#2DC44D" fill-rule="nonzero"></path>
                            <path d="M10.9756098,47.4870658 C9.32242924,47.4870658 7.98226164,48.9761409 7.98226164,50.8130081 C7.98226164,52.6498754 9.32242924,54.1389505 10.9756098,54.1389505 C12.6287903,54.1389505 13.9689579,52.6498754 13.9689579,50.8130081 C13.9689579,48.9761409 12.6287903,47.4870658 10.9756098,47.4870658 M10.9756098,52.4759793 C10.1490195,52.4759793 9.4789357,51.7314417 9.4789357,50.8130081 C9.4789357,49.8945745 10.1490195,49.150037 10.9756098,49.150037 C11.8022,49.150037 12.4722838,49.8945745 12.4722838,50.8130081 C12.4722838,51.7314417 11.8022,52.4759793 10.9756098,52.4759793" id="Shape" fill="#2DC44D" fill-rule="nonzero"></path>
                            <polygon id="Rectangle-path" fill="#2DC44D" fill-rule="nonzero" points="15.2993348 49.4826312 17.2949002 49.4826312 17.2949002 51.4781966 15.2993348 51.4781966"></polygon>
                            <polygon id="Rectangle-path" fill="#2DC44D" fill-rule="nonzero" points="3.99113082 49.4826312 5.98669623 49.4826312 5.98669623 51.4781966 3.99113082 51.4781966"></polygon>
                            <polygon id="Shape-Copy" fill="#2DC44D" fill-rule="nonzero" points="1.33037694 60.1256467 1.33037694 60.7908352 21.286031 60.7908352 21.286031 60.1256467 21.286031 59.4604582 1.33037694 59.4604582"></polygon>
                            <polygon id="Shape-Copy-2" fill="#2DC44D" fill-rule="nonzero" points="1.33037694 61.4560237 1.33037694 62.1212121 21.286031 62.1212121 21.286031 61.4560237 21.286031 60.7908352 1.33037694 60.7908352"></polygon>
                        </g>
                    </g>
                </g>
            </g>
        </g>
    </g>
</svg>