<?xml version="1.0" encoding="UTF-8"?>
<svg width="50px" height="51px" viewBox="0 0 50 51" version="1.1" xmlns="http://www.w3.org/2000/svg" xmlns:xlink="http://www.w3.org/1999/xlink">
    <title>D5BB997B-2624-4389-A460-B62F800E6FC0</title>
    <defs>
        <path d="M8,4 L14,4 L14,6 L8,6 L8,4 Z M8,8 L14,8 L14,10 L8,10 L8,8 Z M8,12 L14,12 L14,14 L8,14 L8,12 Z M4,4 L6,4 L6,6 L4,6 L4,4 Z M4,8 L6,8 L6,10 L4,10 L4,8 Z M4,12 L6,12 L6,14 L4,14 L4,12 Z M17.1,0 L0.9,0 C0.4,0 0,0.4 0,0.9 L0,17.1 C0,17.5 0.4,18 0.9,18 L17.1,18 C17.5,18 18,17.5 18,17.1 L18,0.9 C18,0.4 17.5,0 17.1,0 Z M16,16 L2,16 L2,2 L16,2 L16,16 Z" id="path-1"></path>
    </defs>
    <g id="Login-/-Register" stroke="none" stroke-width="1" fill="none" fill-rule="evenodd">
        <g id="Register---Headerdan-Tıklandıgında" transform="translate(-323.000000, -517.000000)">
            <g id="Group-79" transform="translate(299.000000, 209.000000)">
                <g id="Group-78" transform="translate(24.000000, 87.188406)">
                    <g id="Group-76" transform="translate(0.000000, 220.811594)">
                        <g id="icon_ins_travel" transform="translate(0.000000, 0.188406)">
                            <circle id="Oval" fill="#E5F6ED" cx="25" cy="25" r="25"></circle>
                            <g id="icon/communication/list_alt_24px" transform="translate(16.000000, 16.000000)">
                                <mask id="mask-2" fill="white">
                                    <use xlink:href="#path-1"></use>
                                </mask>
                                <g fill-rule="nonzero"></g>
                                <g id="↳-Color" mask="url(#mask-2)" fill="#2DC44D">
                                    <g transform="translate(-3.000000, -3.000000)" id="Rectangle">
                                        <rect x="0" y="0" width="24" height="24"></rect>
                                    </g>
                                </g>
                            </g>
                        </g>
                    </g>
                </g>
            </g>
        </g>
    </g>
</svg>