<?xml version="1.0" encoding="UTF-8"?>
<svg width="20px" height="20px" viewBox="0 0 20 20" version="1.1" xmlns="http://www.w3.org/2000/svg" xmlns:xlink="http://www.w3.org/1999/xlink">
    <title>E68DB25D-52B4-4D08-84AB-9B1A72782A12</title>
    <defs>
        <path d="M9.16666667,5.83333333 C7.325,5.83333333 5.83333333,7.325 5.83333333,9.16666667 C5.83333333,11.0083333 7.325,12.5 9.16666667,12.5 C11.0083333,12.5 12.5,11.0083333 12.5,9.16666667 C12.5,7.325 11.0083333,5.83333333 9.16666667,5.83333333 Z M16.6166667,8.33333333 C16.2333333,4.85833333 13.475,2.1 10,1.71666667 L10,0 L8.33333333,0 L8.33333333,1.71666667 C4.85833333,2.1 2.1,4.85833333 1.71666667,8.33333333 L0,8.33333333 L0,10 L1.71666667,10 C2.1,13.475 4.85833333,16.2333333 8.33333333,16.6166667 L8.33333333,18.3333333 L10,18.3333333 L10,16.6166667 C13.475,16.2333333 16.2333333,13.475 16.6166667,10 L18.3333333,10 L18.3333333,8.33333333 L16.6166667,8.33333333 Z M9.16666667,15 C5.94166667,15 3.33333333,12.3916667 3.33333333,9.16666667 C3.33333333,5.94166667 5.94166667,3.33333333 9.16666667,3.33333333 C12.3916667,3.33333333 15,5.94166667 15,9.16666667 C15,12.3916667 12.3916667,15 9.16666667,15 Z" id="path-1"></path>
    </defs>
    <g id="Widgets" stroke="none" stroke-width="1" fill="none" fill-rule="evenodd">
        <g id="Enuygun_SW_Otobüs" transform="translate(-188.000000, -306.000000)">
            <g id="Search-Widget-Uçak" transform="translate(160.000000, 162.000000)">
                <g id="search-form" transform="translate(16.000000, 114.000000)">
                    <g id="icon/maps/my_location_24px" transform="translate(12.833333, 30.833333)">
                        <mask id="mask-2" fill="white">
                            <use xlink:href="#path-1"></use>
                        </mask>
                        <g fill-rule="nonzero"></g>
                        <g id="Group" mask="url(#mask-2)">
                            <g transform="translate(-0.833333, -0.833333)" id="↳-Color">
                                <rect id="Rectangle" fill="#53605E" x="0" y="0" width="20" height="20"></rect>
                            </g>
                        </g>
                    </g>
                </g>
            </g>
        </g>
    </g>
</svg>