<?xml version="1.0" encoding="UTF-8"?>
<svg width="50px" height="51px" viewBox="0 0 50 51" version="1.1" xmlns="http://www.w3.org/2000/svg" xmlns:xlink="http://www.w3.org/1999/xlink">
    <title>01D00B3C-6DAB-487D-8005-FD413169AA2F</title>
    <defs>
        <path d="M14,7 L13,7 L13,5 C13,2.24 10.76,0 8,0 C5.24,0 3,2.24 3,5 L3,7 L2,7 C0.9,7 0,7.9 0,9 L0,19 C0,20.1 0.9,21 2,21 L14,21 C15.1,21 16,20.1 16,19 L16,9 C16,7.9 15.1,7 14,7 Z M5,5 C5,3.34 6.34,2 8,2 C9.66,2 11,3.34 11,5 L11,7 L5,7 L5,5 Z M14,19 L2,19 L2,9 L14,9 L14,19 Z M8,16 C9.1,16 10,15.1 10,14 C10,12.9 9.1,12 8,12 C6.9,12 6,12.9 6,14 C6,15.1 6.9,16 8,16 Z" id="path-1"></path>
    </defs>
    <g id="Login-/-Register" stroke="none" stroke-width="1" fill="none" fill-rule="evenodd">
        <g id="Register---Headerdan-Tıklandıgında" transform="translate(-323.000000, -432.000000)">
            <g id="Group-79" transform="translate(299.000000, 209.000000)">
                <g id="Group-78" transform="translate(24.000000, 87.188406)">
                    <g id="Group-75" transform="translate(0.000000, 135.811594)">
                        <g id="icon_ins_travel" transform="translate(0.000000, 0.188406)">
                            <circle id="Oval" fill="#E5F6ED" cx="25" cy="25" r="25"></circle>
                            <g id="icon/action/lock_outline_24px" transform="translate(17.000000, 14.000000)">
                                <mask id="mask-2" fill="white">
                                    <use xlink:href="#path-1"></use>
                                </mask>
                                <g fill-rule="nonzero"></g>
                                <g id="↳-Color" mask="url(#mask-2)" fill="#2DC44D">
                                    <g transform="translate(-4.000000, -1.000000)" id="Rectangle">
                                        <rect x="0" y="0" width="24" height="24"></rect>
                                    </g>
                                </g>
                            </g>
                        </g>
                    </g>
                </g>
            </g>
        </g>
    </g>
</svg>