<?xml version="1.0" encoding="UTF-8"?>
<svg width="20px" height="20px" viewBox="0 0 20 20" version="1.1" xmlns="http://www.w3.org/2000/svg" xmlns:xlink="http://www.w3.org/1999/xlink">
    <title>580CD509-16FA-49BE-954B-A9F9002CB059</title>
    <g id="Page-1" stroke="none" stroke-width="1" fill="none" fill-rule="evenodd">
        <g id="Araç-Kiralama-Search-Result" transform="translate(-829.000000, -299.000000)">
            <g id="icon_milage" transform="translate(829.000000, 299.000000)">
                <rect id="Rectangle" stroke-opacity="0.01" stroke="#FFFFFF" stroke-width="0.1" opacity="0.2" x="0.05" y="0.05" width="19.9" height="19.9"></rect>
                <g id="speedometer-(1)" transform="translate(2.500000, 3.333333)" fill="#53605E" fill-rule="nonzero">
                    <path d="M6.830577,8.0923182 C6.830577,8.60400109 7.25548125,9.02027082 7.77777778,9.02027082 C8.30007431,9.02027082 8.72497855,8.60400109 8.72497855,8.0923182 C8.72497855,7.70294305 8.24513897,5.23618485 7.77777778,2.95548231 C7.31041658,5.23618485 6.830577,7.70297287 6.830577,8.0923182 L6.830577,8.0923182 Z" id="Path"></path>
                    <path d="M2.60086079,1.91550866 L4.75204317,4.02297668 C5.46471117,3.44656192 6.3509809,3.06935195 7.32125147,2.97847091 L7.32125147,0 C5.56322955,0.0988420718 3.91532176,0.767569066 2.60086079,1.91550866 Z" id="Path"></path>
                    <path d="M13.6003143,2.54800847 L11.4491319,4.65547649 C12.037503,5.3536623 12.4225373,6.22192207 12.5153034,7.17247569 L15.5555556,7.17247569 C15.4546328,5.45017868 14.7720651,3.83575817 13.6003143,2.54800847 Z" id="Path"></path>
                    <path d="M8.23430408,0 L8.23430408,2.97847091 C9.20457465,3.06935195 10.0908444,3.44656192 10.8035124,4.02297668 L12.9546948,1.91550866 C11.6402338,0.767569066 9.99232601,0.0988420718 8.23430408,0 Z" id="Path"></path>
                    <path d="M11.1432593,10.9168161 L10.8204343,11.2330511 L12.9642818,13.3333035 L13.2870763,13.0170685 C14.6505378,11.6813141 15.4459284,9.93760874 15.5555251,8.06694426 L12.5156382,8.06694426 C12.4117632,9.14356252 11.9337498,10.1424191 11.1432593,10.9168161 L11.1432593,10.9168161 Z" id="Path"></path>
                    <path d="M0,7.17247569 L3.04025214,7.17247569 C3.13301829,6.22192207 3.51805257,5.3536623 4.10642367,4.65547649 L1.95524129,2.54800847 C0.783490444,3.83575817 0.100922748,5.45017868 0,7.17247569 Z" id="Path"></path>
                    <path d="M2.26844877,13.0170983 L2.5912433,13.3333333 L4.73509083,11.2330809 L4.41226586,10.9168459 C3.62177535,10.1424489 3.14376187,9.14359234 3.03985649,8.06697408 L0,8.06697408 C0.109596748,9.93763855 0.904987311,11.6813439 2.26844877,13.0170983 Z" id="Path"></path>
                </g>
            </g>
        </g>
    </g>
</svg>