<?xml version="1.0" encoding="UTF-8"?>
<svg width="33px" height="33px" viewBox="0 0 33 33" version="1.1" xmlns="http://www.w3.org/2000/svg" xmlns:xlink="http://www.w3.org/1999/xlink">
    <title>71B79B96-90B5-4788-B9AB-8F1C31137425</title>
    <g id="Page-1" stroke="none" stroke-width="1" fill="none" fill-rule="evenodd">
        <g id="Araç-Kiralama-Ek-Hizmet-ve-Güvence" transform="translate(-190.000000, -254.000000)">
            <g id="Group-14" transform="translate(176.000000, 241.000000)">
                <g id="icon_minihasar" transform="translate(14.500000, 13.261348)">
                    <rect id="Rectangle" x="0" y="0" width="32" height="32"></rect>
                    <g id="icon_kasko" transform="translate(1.000000, 7.000000)" fill="#2DC44D">
                        <path d="M18.8135593,15.7627119 L18.8135593,17.2881356 L20.8474576,17.2881356 C20.0652955,16.8665984 19.393248,16.347423 18.8135593,15.7627119" id="Fill-8"></path>
                        <path d="M5.50993527,11.453467 L2.49455013,11.453467 C2.11318969,11.453467 1.80407713,11.1488827 1.80407713,10.7732236 L1.80407713,10.1308799 C1.80407713,9.6972928 2.21030211,9.37437489 2.64045334,9.46599155 L5.65589061,10.1083352 C5.97365623,10.1760206 6.2004604,10.4529248 6.2004604,10.7732236 C6.2004604,11.1488827 5.89129572,11.453467 5.50993527,11.453467 M14.8186539,6.82954761 L11.4285285,6.82954761 L4.2663958,6.82954761 L5.42496842,3.31396378 L11.4284763,3.31396378 L11.4285285,3.31396378 L14.960804,3.31396378 L15.3825107,3.2436593 L15.8635378,3.16339201 C16.7196179,3.02083156 17.2005929,2.52115102 17.4713401,2.03759584 C17.4553892,2.03703094 17.4400118,2.03389831 17.4239567,2.03389831 L11.4285285,2.03389831 L11.4284763,2.03389831 L5.43304809,2.03389831 C4.8652297,2.03389831 4.36199655,2.39415103 4.18664163,2.92623634 L3.40171468,5.30780725 L0.811632966,5.30780725 C0.549173993,5.30780725 0.312465712,5.46325771 0.211548022,5.70190267 L0.0502152471,6.08341621 C-0.0939677754,6.42430824 0.0836807208,6.81444935 0.438039429,6.93508137 L2.14629027,7.51646713 L0.797819336,8.69397741 C0.493189696,8.95994304 0.318825195,9.34181606 0.318825195,9.74284435 L0.318825195,16.779661 L4.2398632,16.779661 L4.2398632,14.8482134 L11.4285285,14.8482134 L18.1355932,14.8482134 C15.7697093,12.4187286 15.0322179,9.06814724 14.8186539,6.82954761" id="Fill-9"></path>
                        <path d="M16.9903766,5.46888127 C16.9637231,7.40837374 17.3093297,13.8164425 22.8813665,15.7433009 C25.5748818,14.8123782 27.3792689,12.7360689 28.2458722,9.56954203 C28.715339,7.85441015 28.775649,6.26977801 28.7691163,5.46788107 C26.8801697,4.90761133 26.0428329,3.20995662 25.7779707,1.99550364 L22.8813665,1.5047741 L19.9847624,1.99550364 C19.7196911,3.21069361 18.8815181,4.90929588 16.9903766,5.46888127 L16.9903766,5.46888127 Z M22.8813665,17.2881356 L22.7208709,17.2362305 C15.0816229,14.7563144 15.7742471,4.87681571 15.7821908,4.77711159 L15.8285469,4.19257384 L16.3106088,4.1103469 C18.6028588,3.72005846 18.8361549,1.35900815 18.8450394,1.25861969 L18.8957855,0.680135781 L19.373771,0.594223893 L22.8813665,0 L26.8730622,0.676240267 L26.9180595,1.26346276 C26.9265259,1.35900815 27.159822,3.72005846 29.452072,4.1103469 L29.9341861,4.19257384 L29.9805422,4.77711159 C29.9884338,4.87681571 30.6810579,14.7563144 23.0417577,17.2362305 L22.8813665,17.2881356 Z" id="Fill-11"></path>
                        <path d="M23.3898305,8.6440678 L27.6912209,8.6440678 C27.8809216,7.67927302 27.9477386,6.80553423 27.9661017,6.174489 C26.2063298,5.40984954 25.4653759,3.78573812 25.1750125,2.84853288 L23.3898305,2.54237288 L23.3898305,8.6440678 Z" id="Fill-12"></path>
                        <path d="M23.3898305,8.81355932 L17.7966102,8.81355932 C18.2973929,11.0510111 19.59362,13.7692448 22.875128,14.9152542 C23.0513354,14.8538725 23.2220295,14.7859267 23.3898305,14.7145736 L23.3898305,8.81355932 Z" id="Fill-13"></path>
                    </g>
                </g>
            </g>
        </g>
    </g>
</svg>