<svg width="18" height="14" xmlns="http://www.w3.org/2000/svg" xmlns:xlink="http://www.w3.org/1999/xlink"><defs><path d="M18.333 8.333V5c0-.925-.75-1.667-1.666-1.667H3.333A1.66 1.66 0 0 0 1.675 5v3.333c.917 0 1.658.75 1.658 1.667s-.741 1.667-1.666 1.667V15c0 .917.75 1.667 1.666 1.667h13.334c.916 0 1.666-.75 1.666-1.667v-3.333c-.916 0-1.666-.75-1.666-1.667s.75-1.667 1.666-1.667zm-7.5 6.25H9.167v-1.666h1.666v1.666zm0-3.75H9.167V9.167h1.666v1.666zm0-3.75H9.167V5.417h1.666v1.666z" id="a"/></defs><g transform="translate(-1 -3.006)" fill="none" fill-rule="evenodd"><mask id="b" fill="#fff"><use xlink:href="#a"/></mask><g mask="url(#b)" fill="#53605E"><path d="M0 0h20v20H0z"/></g></g></svg>