<?xml version="1.0" encoding="UTF-8"?>
<svg width="29px" height="29px" viewBox="0 0 29 29" version="1.1" xmlns="http://www.w3.org/2000/svg" xmlns:xlink="http://www.w3.org/1999/xlink">
    <title>A49FA13E-19E1-4FB6-8B73-E9F109DFAE23</title>
    <g id="Page-1" stroke="none" stroke-width="1" fill="none" fill-rule="evenodd">
        <g id="Araç-Kiralama-Ek-Hizmet-ve-Güvence" transform="translate(-192.000000, -733.000000)">
            <g id="Group-4-Copy-6" transform="translate(160.000000, 702.000000)">
                <g id="navigasyon" transform="translate(16.000000, 15.000000)">
                    <g id="Group-11" transform="translate(16.500000, 16.117350)">
                        <g id="Group-3">
                            <path d="M5.61056128,22.3846183 C5.71194361,22.3445255 5.7529402,22.3306409 5.791965,22.3124841 C9.49529562,20.5897238 13.1989549,18.8676209 16.8993278,17.1385345 C17.0022711,17.0904724 17.100778,16.9814494 17.1496617,16.8766165 C18.8660958,13.199987 20.5762859,9.52048209 22.2863939,5.84089498 C22.3134237,5.78272748 22.328212,5.71880896 22.3575422,5.63114693 C22.2879548,5.65965557 22.2539417,5.6719792 22.221243,5.68717833 C18.5178302,7.40960992 14.8138423,9.13097347 11.1139623,10.8610457 C10.9976273,10.915434 10.8914799,11.0455714 10.8349555,11.1659321 C9.94970865,13.0518571 9.07366343,14.9420543 8.19498917,16.8311012 C7.34334472,18.6619807 6.49104301,20.4926137 5.61056128,22.3846183" id="Path" fill="#000000"></path>
                            <path d="M14.8203328,28 L13.180223,28 C13.1098962,27.9846366 13.0401445,27.9599071 12.9690782,27.9552242 C11.5035531,27.8584427 10.0775457,27.5588143 8.7373107,26.9635834 C3.38080724,24.5847957 0.441705514,20.4590113 0.0324791002,14.6117812 C-0.1619055,11.8351048 0.519590806,9.20861229 1.98684126,6.83910837 C4.60273546,2.61448854 8.42379775,0.330017616 13.3856167,0.0255419912 C15.6693482,-0.114618672 17.8737977,0.322294813 19.931021,1.33061358 C24.2317187,3.43852807 26.8557465,6.85693655 27.7748422,11.5657926 C27.8788536,12.098666 27.9234651,12.6431236 27.9955994,13.182241 L27.9955994,14.8225973 C27.9796608,14.9011398 27.9545206,14.9790251 27.9491804,15.0583071 C27.8505914,16.5233393 27.5382287,17.9436778 26.9528566,19.2878564 C24.926278,23.9415026 21.4234938,26.7857124 16.4381779,27.7783391 C15.9053045,27.8844866 15.3599431,27.9276193 14.8203328,28" id="Path" fill="#2DC44D"></path>
                        </g>
                        <path d="M13.9951759,15.5360103 C14.8381938,15.5384683 15.5247839,14.8628873 15.5336569,14.0220055 C15.5426942,13.1663353 14.8600477,12.471776 14.0071709,12.4688087 C13.1670285,12.4658606 12.4757554,13.1453852 12.4669646,13.9828164 C12.4580094,14.8348716 13.1453389,15.5334567 13.9951759,15.5360103 M5.61059414,22.3846512 C6.49107587,20.4925644 7.34329542,18.6620136 8.19493987,16.8310519 C9.07369629,14.9420871 9.94974151,13.0518078 10.8349884,11.1658828 C10.8914306,11.0455221 10.9976602,10.9154668 11.113913,10.8610786 C14.813793,9.13092417 18.5177809,7.40964279 22.2212758,5.68721119 C22.2539745,5.67201206 22.2879877,5.65960628 22.3575751,5.63117979 C22.3282449,5.71875967 22.3134565,5.78267819 22.2864267,5.84084568 C20.5763187,9.52043279 18.8660465,13.1999377 17.1496945,16.8766493 C17.1008108,16.9814001 17.0022218,17.0904231 16.8992785,17.1385674 C13.1989877,18.8676537 9.49532848,20.5897567 5.79199786,22.3125169 C5.75297306,22.3306737 5.71197648,22.3444762 5.61059414,22.3846512" id="Fill-7" fill="#FFFFFF"></path>
                        <path d="M13.9951759,15.5360103 C13.1453389,15.5334567 12.4580094,14.8348716 12.4669646,13.9828164 C12.4757554,13.1453852 13.1670285,12.4658606 14.0071709,12.4688087 C14.8600477,12.471776 15.5426942,13.1663353 15.5336569,14.0220055 C15.5247839,14.8628873 14.8381938,15.5384683 13.9951759,15.5360103" id="Fill-9" fill="#2DC44D"></path>
                    </g>
                </g>
            </g>
        </g>
    </g>
</svg>