<?xml version="1.0" encoding="UTF-8"?>
<svg width="120px" height="119px" viewBox="0 0 120 119" version="1.1" xmlns="http://www.w3.org/2000/svg" xmlns:xlink="http://www.w3.org/1999/xlink">
    <title>CD48623F-31F4-4BBC-9CE0-72EA66D1EE7F</title>
    <defs>
        <polygon id="path-1" points="0 0 15.2292115 0 15.2292115 19.3454722 0 19.3454722"></polygon>
    </defs>
    <g id="Design" stroke="none" stroke-width="1" fill="none" fill-rule="evenodd">
        <g id="Enuygun_Homepage" transform="translate(-595.000000, -1386.000000)">
            <g id="Group-18" transform="translate(550.000000, 1386.000000)">
                <g id="online-bilet-iptali" transform="translate(45.000000, 0.000000)">
                    <path d="M27.1728254,43.4418849 C27.176762,46.6741965 29.8405226,49.0247637 33.1429791,48.5774123 C36.4493678,48.1300608 39.0951528,45.0526883 39.0642572,41.8158694 C39.0333616,38.5745431 36.3971261,36.2735564 33.0795027,36.7310494 C29.766935,37.1885423 27.1688977,40.205066 27.1728254,43.4418849 M40.6854325,41.61304 C40.7298097,45.7485058 37.3133205,49.5104274 33.1508434,50.073279 C28.995669,50.6344403 25.5617659,47.8089143 25.5617659,43.6807729 C25.5617659,39.5960144 28.9597178,35.8329659 33.0716384,35.2644802 C37.1908616,34.6943043 40.6416169,37.5203937 40.6854325,41.61304" id="Fill-1" fill="#FFFFFF"></path>
                    <polygon id="Fill-3" fill="#FFFFFF" points="42.8878378 33.5483183 54.454019 43.6734485 54.2276386 32.5837519 55.8516226 32.3589493 56.1746218 47.3671969 44.5550756 37.1902326 44.7039361 48.2618999 43.0720878 48.4821951"></polygon>
                    <polygon id="Fill-5" fill="#FFFFFF" points="60.8351917 44.5762083 64.9055438 44.024625 64.9471124 45.5255625 59.2291834 46.2980044 58.8882086 31.9388108 60.5150012 31.7140082"></polygon>
                    <path d="M68.2624327,45.0771968 L66.6137322,45.3003092 L66.1974845,30.928157 L67.8293328,30.702791 L68.2624327,45.0771968 Z M67.9534769,27.055806 C67.970329,27.6197844 67.5186918,28.1347457 66.9367315,28.2158774 C66.3547711,28.2964458 65.8767323,27.9110699 65.8604419,27.3465281 C65.8447132,26.78424 66.2957887,26.2692787 66.8766255,26.188147 C67.4580241,26.1075786 67.936063,26.4935179 67.9534769,27.055806 L67.9534769,27.055806 Z" id="Fill-7" fill="#FFFFFF"></path>
                    <polygon id="Fill-9" fill="#FFFFFF" points="70.8826024 29.6736009 82.8234627 39.8184507 82.3723872 28.6915687 84.0154703 28.4645124 84.6440548 43.522904 72.6470208 33.3256567 73.0188912 44.433946 71.3668204 44.6576217"></polygon>
                    <polygon id="Fill-11" fill="#FFFFFF" points="87.0892995 28.0394722 94.7631994 26.9785618 94.8362253 28.4563993 88.8025997 29.2885631 88.994714 33.5479802 94.8699296 32.7428603 94.9429555 34.2325294 89.0615608 35.0365225 89.3177133 40.7168721 95.4018953 39.8925961 95.4760447 41.3986042 87.7218162 42.4465561"></polygon>
                    <path d="M40.679141,67.7345913 L41.1706616,67.670362 C42.311551,67.5204936 44.2411203,67.3272423 44.2197743,65.6916487 C44.196743,63.903933 42.2941371,64.331565 41.0380914,64.497209 L40.6454367,64.5490431 L40.679141,67.7345913 Z M40.6156646,61.6897122 L41.0465175,61.6328073 C42.0649481,61.4981511 43.1210152,61.1820754 43.1052865,59.9318576 C43.0889961,58.5875495 41.8953033,58.6675544 40.8594588,58.8055911 L40.5858925,58.8416496 L40.6156646,61.6897122 Z M36.8525832,71.2007201 L36.7368652,56.4381214 L42.1935861,55.7090625 C44.8101607,55.3597452 46.5835669,56.1338773 46.6245738,58.9374302 C46.6442346,60.2648358 46.2279869,61.3972999 45.0393497,62.1629808 L45.0399115,62.2018564 C47.1649655,62.1956589 48.0912712,63.5084157 48.1238519,65.5733315 C48.1727231,68.6918333 45.5218825,70.0699463 42.7997012,70.4248977 L36.8525832,71.2007201 Z" id="Fill-13" fill="#FFFFFF"></path>
                    <path d="M54.0851819,68.9526944 L50.2046973,69.4586411 L49.952477,54.6723789 L53.7925165,54.1591079 L54.0851819,68.9526944 Z M53.7548801,51.2687892 C53.7762261,52.33308 52.9308108,53.2813074 51.8730585,53.423288 C50.7962071,53.5675222 49.9210197,52.850295 49.9030441,51.7860041 C49.8850684,50.743123 50.7293603,49.7779932 51.803403,49.6331956 C52.8577848,49.491215 53.7346575,50.2253447 53.7548801,51.2687892 L53.7548801,51.2687892 Z" id="Fill-15" fill="#FFFFFF"></path>
                    <polygon id="Fill-17" fill="#FFFFFF" points="60.4337739 64.8278209 65.0973211 64.2159522 65.1877609 67.5046053 56.622383 68.6218572 56.3038777 53.8237633 60.1545902 53.3088021"></polygon>
                    <polygon id="Fill-19" fill="#FFFFFF" points="70.0087069 55.2423858 70.085665 57.7090165 74.471152 57.1281357 74.5829378 60.3936888 70.1867778 60.9728794 70.2671063 63.5381077 74.9104309 62.9290561 75.0233402 66.2216531 66.4618945 67.3383416 66.0411529 52.5222184 74.513844 51.3897544 74.6250681 54.628827"></polygon>
                    <polygon id="Fill-21" fill="#FFFFFF" points="83.4547998 65.1215854 79.5254439 65.634293 79.0900971 54.0352693 75.8735865 54.4629013 75.7595538 51.2232653 86.0758683 49.8445888 86.2140558 53.0881688 82.9874339 53.5169275"></polygon>
                    <path d="M36.1600728,93.8462829 L32.249816,94.3370173 L32.1807223,79.1225598 L36.0499722,78.6239376 L36.1600728,93.8462829 Z M36.048287,75.6507968 C36.0561513,76.7455121 35.1938838,77.7151492 34.1282672,77.8526225 C33.0435515,77.9929128 32.1717345,77.2475148 32.1666613,76.153363 C32.1621849,75.0800575 33.023329,74.0946447 34.105236,73.953791 C35.1680439,73.8157543 36.0404227,74.5769279 36.048287,75.6507968 L36.048287,75.6507968 Z" id="Fill-23" fill="#FFFFFF"></path>
                    <path d="M42.541695,84.749554 L43.1989282,84.6656052 C44.613384,84.4858758 46.0087406,84.3078367 45.9829007,82.4525112 C45.9559373,80.5414077 44.6633786,80.6862053 43.1534274,80.8800201 L42.4973177,80.9639689 L42.541695,84.749554 Z M38.5803201,78.2978893 L44.5223824,77.5322084 C47.7372078,77.117535 49.9880912,78.3333845 50.0470736,81.8119084 C50.1071796,85.4070593 48.2129997,87.2325237 44.7948253,87.6657898 L42.5787697,87.9463705 L42.6383139,93.0328807 L38.7168224,93.5253054 L38.5803201,78.2978893 Z" id="Fill-25" fill="#FFFFFF"></path>
                    <polygon id="Fill-27" fill="#FFFFFF" points="58.0066734 91.1030718 54.059342 91.598877 53.8273443 79.673636 50.5967902 80.087746 50.5389312 76.7568367 60.90187 75.4215433 60.983322 78.7563964 57.7420949 79.1716332"></polygon>
                    <path d="M67.8383206,79.2346794 L67.7984372,79.2397501 L66.3070234,84.3076677 L69.5937512,83.8907406 L67.8383206,79.2346794 Z M65.3020745,87.4999768 L64.3235273,90.3097272 L60.1234138,90.8370836 L65.5593504,74.8208866 L69.8465332,74.2687399 L76.0762053,88.8341434 L71.8345233,89.3665706 L70.7582337,86.8120471 L65.3020745,87.4999768 Z" id="Fill-29" fill="#FFFFFF"></path>
                    <polygon id="Fill-31" fill="#FFFFFF" points="81.1722906 84.779753 85.9504323 84.1763356 86.0914284 87.5765449 77.3148372 88.6785846 76.7733219 73.3762343 80.7178447 72.868034"></polygon>
                    <path d="M91.4013673,86.9097996 L87.3973003,87.4123658 L86.7484931,72.0908594 L90.709868,71.5804055 L91.4013673,86.9097996 Z M90.5952735,68.5864184 C90.6452682,69.6890215 89.7947972,70.6671098 88.7039024,70.8079636 C87.5933468,70.9516344 86.6687264,70.2028559 86.6215404,69.1008162 C86.5760396,68.0207498 87.4242637,67.0263224 88.5320106,66.8826516 C89.6200967,66.7412344 90.5464024,67.5052251 90.5952735,68.5864184 L90.5952735,68.5864184 Z" id="Fill-33" fill="#FFFFFF"></path>
                    <path d="M60.6771187,119 C27.9660036,119 1.35423747,92.3082164 1.35423747,59.5 C1.35423747,53.3368038 2.29009263,47.2603735 4.13596302,41.4414238 C4.4449188,40.4678427 5.4824485,39.9280912 6.45313141,40.2396597 C7.42325257,40.5489745 7.9602739,41.5896019 7.65131812,42.5626195 C5.92060398,48.0192934 5.04260781,53.7176723 5.04260781,59.5 C5.04260781,90.2686542 30.0000562,115.300617 60.6771187,115.300617 C91.3541813,115.300617 116.31163,90.2686542 116.31163,59.5 C116.31163,28.7313458 91.3541813,3.69938261 60.6771187,3.69938261 C52.0066959,3.69938261 43.7008409,5.64372763 35.9921132,9.47889324 C35.079851,9.93356912 33.9721041,9.55833475 33.5204669,8.64334886 C33.0677063,7.72836297 33.4401384,6.61843551 34.3529623,6.16432305 C42.5762419,2.07449387 51.4325999,0 60.6771187,0 C93.3882338,0 120,26.6917836 120,59.5 C120,92.3082164 93.3882338,119 60.6771187,119" id="Fill-35" fill="#FFFFFF"></path>
                    <path d="M18.1944062,6.82256074 C19.5706638,7.39499034 20.8800746,9.04466934 21.7867194,11.5028488 L18.1944062,11.5028488 L18.1944062,6.82256074 Z M18.1944062,13.4894499 L22.3911493,13.4894499 C22.7265067,14.9374264 22.9618749,16.5876688 23.0287217,18.372004 L18.1944062,18.372004 L18.1944062,13.4894499 Z M18.1944062,20.3586051 L23.0287217,20.3586051 C22.9618749,22.1435037 22.760211,23.7931827 22.3911493,25.2411591 L18.1944062,25.2411591 L18.1944062,20.3586051 Z M18.1944062,27.2277603 L21.7867194,27.2277603 C20.8463703,29.7197446 19.5375213,31.3694236 18.1944062,31.9080483 L18.1944062,27.2277603 Z M21.954679,31.1677211 C22.6928025,30.0899082 23.3646409,28.776588 23.8679579,27.2277603 L27.1917604,27.2277603 C25.8155028,28.9788539 24.0022132,30.3259791 21.954679,31.1677211 L21.954679,31.1677211 Z M24.4049792,25.2411591 C24.7408984,23.7261363 24.9425623,22.0758939 25.0094091,20.3586051 L29.8437245,20.3586051 C29.7094692,22.1096988 29.2392947,23.7593778 28.467467,25.2411591 L24.4049792,25.2411591 Z M29.8774288,18.372004 L25.0094091,18.372004 C24.9425623,16.6209103 24.7408984,15.0050362 24.4049792,13.4894499 L28.467467,13.4894499 C29.2392947,14.9712313 29.7431735,16.6209103 29.8774288,18.372004 L29.8774288,18.372004 Z M27.1917604,11.5028488 L23.8679579,11.5028488 C23.3309366,9.98782598 22.6928025,8.64070081 21.9209747,7.56345141 C24.0022132,8.40519336 25.8155028,9.75175511 27.1917604,11.5028488 L27.1917604,11.5028488 Z M16.2137188,11.5366537 L12.6214056,11.5366537 C13.5617546,9.04466934 14.8706037,7.39499034 16.2137188,6.85636564 L16.2137188,11.5366537 Z M12.4871502,7.56345141 C11.7147608,8.64070081 11.0434841,9.95402108 10.5401671,11.5028488 L7.21636455,11.5028488 C8.59262214,9.75175511 10.4059117,8.40519336 12.4871502,7.56345141 L12.4871502,7.56345141 Z M14.1656228,32.0432679 C14.0313674,32.648939 13.7291525,33.1881271 13.3263865,33.5920956 C14.5683888,33.9284543 15.8777996,34.0969154 17.2209146,34.0969154 C25.311624,34.0969154 31.8918205,27.4970726 31.8918205,19.382207 C31.8918205,11.2335364 25.311624,4.63369363 17.2209146,4.63369363 C9.1302052,4.63369363 2.51630444,11.2335364 2.51630444,19.382207 C2.51630444,19.9884415 2.58371297,20.6279174 2.65055977,21.2341519 L7.68653908,18.372004 L4.56440043,18.372004 C4.69865576,16.6209103 5.16826856,14.9712313 5.94065802,13.4894499 L10.002584,13.4894499 C9.7009308,14.7019189 9.5329712,16.0152392 9.4318584,17.3618009 L11.5473629,16.1831368 C11.647914,15.2067387 11.8158736,14.3311919 12.0169757,13.4894499 L16.2137188,13.4894499 L16.2137188,16.4192077 C16.7844444,17.0924886 16.9855465,18.0018403 16.8181486,18.8773872 L16.2137188,21.8403864 L16.2137188,25.2411591 L15.5424421,25.2411591 L15.1391144,27.2277603 L16.2137188,27.2277603 L16.2137188,31.9080483 C15.6092889,31.638736 15.004859,31.2009625 14.4678377,30.5276817 L14.1656228,32.0432679 Z" id="Fill-37" fill="#FFFFFF"></path>
                    <g id="Group-41" transform="translate(0.000000, 16.946093)">
                        <mask id="mask-2" fill="white">
                            <use xlink:href="#path-1"></use>
                        </mask>
                        <g id="Clip-40"></g>
                        <path d="M0.401249305,17.3192275 L2.95266236,19.1711725 C3.42283689,19.4742897 4.02726675,19.3734384 4.36262421,18.935665 L8.45825446,13.2784154 L10.2378398,15.3664313 C10.9428207,16.2081732 12.3190783,15.8712511 12.5544464,14.7601968 L15.2064106,1.62812093 C15.4080744,0.483261736 14.232919,-0.392285107 13.2257231,0.180144489 L1.61010903,6.8137922 C0.669759969,7.3524169 0.737168504,8.76658844 1.7775069,9.20436186 L4.29577742,10.2478064 L0.199585438,15.905056 C-0.135772024,16.3428294 -0.0352209596,16.9823054 0.401249305,17.3192275" id="Fill-39" fill="#FFFFFF" mask="url(#mask-2)"></path>
                    </g>
                </g>
            </g>
        </g>
    </g>
</svg>