<?xml version="1.0" encoding="UTF-8"?>
<svg width="20px" height="20px" viewBox="0 0 20 20" version="1.1" xmlns="http://www.w3.org/2000/svg" xmlns:xlink="http://www.w3.org/1999/xlink">
    <title>D19F4B46-4960-4400-9B3A-C407F306A9A3</title>
    <defs>
        <path d="M6.66666667,8.33333333 C7.16805715,8.33333333 7.78200982,8.39003759 8.43233367,8.5032554 C7.84209009,9.41460795 7.5,10.5006876 7.5,11.6666667 C7.5,12.2460419 7.58446541,12.8056892 7.741754,13.3339664 L0,13.3333333 L0,11.6666667 C0,9.45 4.44166667,8.33333333 6.66666667,8.33333333 Z M6.66666667,0 C8.50833333,0 10,1.49166667 10,3.33333333 C10,5.175 8.50833333,6.66666667 6.66666667,6.66666667 C4.825,6.66666667 3.33333333,5.175 3.33333333,3.33333333 C3.33333333,1.49166667 4.825,0 6.66666667,0 Z" id="path-1"></path>
        <path d="M7.18611111,0.455902778 C7.09583333,0.189583333 6.84305556,0 6.54513889,0 L1.57986111,0 C1.28194444,0 1.03368056,0.189583333 0.938888889,0.455902778 L0,3.15972222 L0,6.77083333 C0,7.01909722 0.203125,7.22222222 0.451388889,7.22222222 L0.902777778,7.22222222 C1.15104167,7.22222222 1.35416667,7.01909722 1.35416667,6.77083333 L1.35416667,6.31944444 L6.77083333,6.31944444 L6.77083333,6.77083333 C6.77083333,7.01909722 6.97395833,7.22222222 7.22222222,7.22222222 L7.67361111,7.22222222 C7.921875,7.22222222 8.125,7.01909722 8.125,6.77083333 L8.125,3.15972222 L7.18611111,0.455902778 Z M1.57986111,4.96527778 C1.20520833,4.96527778 0.902777778,4.66284722 0.902777778,4.28819444 C0.902777778,3.91354167 1.20520833,3.61111111 1.57986111,3.61111111 C1.95451389,3.61111111 2.25694444,3.91354167 2.25694444,4.28819444 C2.25694444,4.66284722 1.95451389,4.96527778 1.57986111,4.96527778 Z M6.54513889,4.96527778 C6.17048611,4.96527778 5.86805556,4.66284722 5.86805556,4.28819444 C5.86805556,3.91354167 6.17048611,3.61111111 6.54513889,3.61111111 C6.91979167,3.61111111 7.22222222,3.91354167 7.22222222,4.28819444 C7.22222222,4.66284722 6.91979167,4.96527778 6.54513889,4.96527778 Z M0.902777778,2.70833333 L1.57986111,0.677083333 L6.54513889,0.677083333 L7.22222222,2.70833333 L0.902777778,2.70833333 Z" id="path-3"></path>
    </defs>
    <g id="Page-1" stroke="none" stroke-width="1" fill="none" fill-rule="evenodd">
        <g id="Araç-Kiralama-Search-Result" transform="translate(-736.000000, -299.000000)">
            <g id="icon_driverslicence" transform="translate(736.000000, 299.000000)">
                <rect id="Rectangle" stroke-opacity="0.01" stroke="#FFFFFF" stroke-width="0.1" opacity="0.2" x="0.05" y="0.05" width="19.9" height="19.9"></rect>
                <g id="Group-68" transform="translate(0.833333, 1.666667)">
                    <g id="person">
                        <mask id="mask-2" fill="white">
                            <use xlink:href="#path-1"></use>
                        </mask>
                        <use id="Combined-Shape" fill="#000000" fill-rule="nonzero" xlink:href="#path-1"></use>
                        <rect id="Rectangle" fill="#53605E" mask="url(#mask-2)" x="-2.5" y="-1.66666667" width="20" height="20"></rect>
                    </g>
                    <g id="icon/maps/directions_car_24px" transform="translate(9.687500, 8.090278)">
                        <mask id="mask-4" fill="white">
                            <use xlink:href="#path-3"></use>
                        </mask>
                        <g fill-rule="nonzero"></g>
                        <g id="↳-Color" mask="url(#mask-4)" fill="#53605E">
                            <g transform="translate(-1.354167, -2.256944)" id="Rectangle">
                                <rect x="0" y="0" width="10.8333333" height="10.8333333"></rect>
                            </g>
                        </g>
                    </g>
                </g>
            </g>
        </g>
    </g>
</svg>