<svg width="11" height="20" xmlns="http://www.w3.org/2000/svg" xmlns:xlink="http://www.w3.org/1999/xlink"><defs><path d="M12.917.833H6.25c-1.15 0-2.083.934-2.083 2.084v14.166c0 1.15.933 2.084 2.083 2.084h6.667c1.15 0 2.083-.934 2.083-2.084V2.917c0-1.15-.933-2.084-2.083-2.084zm-3.334 17.5c-.691 0-1.25-.558-1.25-1.25 0-.691.559-1.25 1.25-1.25.692 0 1.25.559 1.25 1.25 0 .692-.558 1.25-1.25 1.25zM13.333 15h-7.5V3.333h7.5V15z" id="prefix__a"/></defs><g transform="translate(-4)" fill="none" fill-rule="evenodd"><mask id="prefix__b" fill="#fff"><use xlink:href="#prefix__a"/></mask><g mask="url(#prefix__b)" fill="#727E7C"><path d="M0 0h20v20H0z"/></g></g></svg>
