<?xml version="1.0" encoding="UTF-8"?>
<svg width="120px" height="120px" viewBox="0 0 120 120" version="1.1" xmlns="http://www.w3.org/2000/svg" xmlns:xlink="http://www.w3.org/1999/xlink">
    <title>BFCF558D-1A65-4EB7-94A8-955AB56BF142</title>
    <defs>
        <polygon id="path-1" points="0 0 120 0 120 120 0 120"></polygon>
    </defs>
    <g id="Design" stroke="none" stroke-width="1" fill="none" fill-rule="evenodd">
        <g id="Enuygun_Homepage" transform="translate(-1115.000000, -1385.000000)">
            <g id="Group-27" transform="translate(1070.000000, 1385.000000)">
                <g id="fiyatalarmi" transform="translate(45.000000, 0.000000)">
                    <g id="Group-3">
                        <mask id="mask-2" fill="white">
                            <use xlink:href="#path-1"></use>
                        </mask>
                        <g id="Clip-2"></g>
                        <path d="M60.0000284,120 C26.9155289,120 0,93.0839157 0,60 C0,53.7850122 0.946537577,47.6575195 2.81347784,41.789671 C3.12596023,40.8079086 4.17476477,40.2636214 5.15709579,40.5778081 C6.1382905,40.8897222 6.68144172,41.9390944 6.36895932,42.9202886 C4.61848977,48.4228169 3.73047163,54.1690813 3.73047163,60 C3.73047163,91.0272144 28.9727994,116.26953 60.0000284,116.26953 C91.0272575,116.26953 116.269585,91.0272144 116.269585,60 C116.269585,28.9727856 91.0272575,3.73046986 60.0000284,3.73046986 C51.2306362,3.73046986 42.8299731,5.69115391 35.0332533,9.55854781 C34.110578,10.0170445 32.9907548,9.63922504 32.5333942,8.71598205 C32.0754654,7.7933072 32.4521488,6.67405261 33.3753922,6.21612408 C41.6925372,2.0919266 50.6499871,0 60.0000284,0 C93.0845279,0 120.000057,26.9160843 120.000057,60 C120.000057,93.0839157 93.0845279,120 60.0000284,120" id="Fill-1" fill="#FFFFFF" mask="url(#mask-2)"></path>
                    </g>
                    <polygon id="Fill-4" fill="#FFFFFF" points="40.9377502 46.1006761 36.0402989 46.5972388 36.0402989 49.1897051 40.4832303 48.7397307 40.4832303 52.1844213 36.0402989 52.6332595 36.0402989 58.7931368 31.9927996 59.2005 31.9927996 43.5650247 40.9377502 42.6559855"></polygon>
                    <path d="M47.2438721,42.0153969 L47.2438721,57.665644 L43.1906914,58.0735754 L43.1906914,42.4273053 L47.2438721,42.0153969 Z M45.2377352,36.3253792 C45.8030442,36.267428 46.2819945,36.415715 46.6751542,36.7702403 C47.0683139,37.1241975 47.2643255,37.5855349 47.2643255,38.1531163 C47.2643255,38.7201295 47.0683139,39.2206693 46.6751542,39.6553037 C46.2819945,40.0893699 45.8030442,40.3353787 45.2377352,40.3927618 C44.6724261,40.4501449 44.1900669,40.302426 43.7900895,39.949037 C43.390112,39.5950798 43.1906914,39.1348787 43.1906914,38.5678655 C43.1906914,38.0008522 43.390112,37.4991762 43.7900895,37.0639736 C44.1900669,36.6293392 44.6724261,36.3827623 45.2377352,36.3253792 L45.2377352,36.3253792 Z" id="Fill-6" fill="#FFFFFF"></path>
                    <polygon id="Fill-8" fill="#FFFFFF" points="53.9282682 49.4761093 48.1746152 41.9208568 53.0379775 41.4265667 55.9576994 45.3877052 58.8785575 40.8334186 63.7481695 40.3385603 57.9876986 49.0659053 57.9876986 56.5847963 53.9282682 56.9932958"></polygon>
                    <path d="M73.1640594,49.2153855 L71.5039257,44.3940685 L71.4624507,44.3986137 L69.7818636,49.5568434 L73.1640594,49.2153855 Z M74.2634293,52.222601 L68.6614722,52.7873416 L67.5831239,55.6189989 L63.2708668,56.0530652 L69.2835962,39.7755809 L73.7242551,39.3244702 L79.621082,54.4077041 L75.2809856,54.844043 L74.2634293,52.222601 Z" id="Fill-10" fill="#FFFFFF"></path>
                    <polygon id="Fill-12" fill="#FFFFFF" points="87.1224775 41.4175899 87.1224775 53.6526902 83.0488434 54.062326 83.0488434 41.8306346 79.6831239 42.1720925 79.6831239 38.7188796 90.4910377 37.6206466 90.4910377 41.076132"></polygon>
                    <path d="M28.566345,78.5982046 L26.9153016,73.7876825 L26.8738267,73.7916596 L25.2028981,78.9328447 L28.566345,78.5982046 Z M29.6594652,81.5991705 L24.0887564,82.15198 L23.0160895,84.9734106 L18.7282629,85.3983865 L24.7074715,69.1777172 L29.1236999,68.736265 L34.9870059,83.7876825 L30.67134,84.2154991 L29.6594652,81.5991705 Z" id="Fill-14" fill="#FFFFFF"></path>
                    <polygon id="Fill-16" fill="#FFFFFF" points="40.2964227 67.6182035 40.2964227 79.8175104 45.1552398 79.3351514 45.1552398 82.7804102 36.2466509 83.6627464 36.2466509 68.0232941"></polygon>
                    <path d="M54.9434383,75.9753991 L53.2867135,71.1569229 L53.2458067,71.1608999 L51.5686285,76.3111755 L54.9434383,75.9753991 Z M56.0405356,78.9809102 L50.4510778,79.5359923 L49.3750021,82.3625362 L45.0724036,82.7886484 L51.0720655,66.5401398 L55.5024977,66.0969831 L61.385689,81.1722629 L57.0552511,81.6012158 L56.0405356,78.9809102 Z" id="Fill-18" fill="#FFFFFF"></path>
                    <path d="M66.7538524,68.0885745 L66.7538524,71.9951707 L67.143035,71.9565366 C68.9991804,71.771888 69.9275372,71.0281802 69.9275372,69.7248452 C69.9275372,68.4226464 68.9991804,67.8641554 67.143035,68.0499403 L66.7538524,68.0885745 Z M70.7365826,73.8229078 L75.6550554,79.7589342 L70.5911362,80.260042 L66.7538524,74.6137719 L66.7538524,80.6407022 L62.6495382,81.0469292 L62.6495382,65.3819101 L68.7241959,64.7739901 C70.3559222,64.6109312 71.6495993,64.8694392 72.6035228,65.5500824 C73.6415325,66.2778819 74.1602533,67.4459974 74.1602533,69.0538606 C74.1602533,70.1765241 73.8699287,71.1616954 73.2887115,72.0093745 C72.6660193,72.9172774 71.815499,73.5217885 70.7365826,73.8229078 L70.7365826,73.8229078 Z" id="Fill-20" fill="#FFFFFF"></path>
                    <polygon id="Fill-22" fill="#FFFFFF" points="75.8211256 79.7421737 78.4789304 63.7981933 82.4877954 63.3970797 85.6677299 71.4636668 89.0357219 62.7414351 93.0917434 62.3357764 95.4637689 77.7962616 91.3855895 78.2002159 90.241904 69.2808363 90.200429 69.2848134 86.4364366 78.6905289 84.8155052 78.8513153 81.2202532 70.1796489 81.1787783 70.1836259 79.8703293 79.3410602"></polygon>
                    <polygon id="Fill-24" fill="#FFFFFF" points="101.272021 61.5174138 101.272021 77.2204988 97.1915692 77.6250213 97.1915692 61.9259133"></polygon>
                    <path d="M27.7404824,33.0918698 L27.7404824,33.0918698 C25.1133577,32.5731493 23.2816427,27.5399125 24.7645137,20.0130674 L25.0275671,18.6773479 C25.6638949,15.4508267 23.8958127,12.2993012 20.9726819,11.0783478 L21.7885451,6.93483325 C21.9345596,6.19737515 21.4539048,5.48093858 20.7164464,5.3354923 C19.975579,5.19175047 19.2619829,5.67013238 19.1165365,6.40872678 L18.3006734,10.5522413 C15.0775596,10.5715584 12.2907848,12.8742685 11.6663881,16.0445429 L11.4027666,17.3808306 C9.97784689,24.616215 6.69450916,28.4017954 4.18726407,28.4023635 L4.18669592,28.4023635 C4.02136433,28.4023635 3.85489643,28.3858872 3.69126929,28.3540708 L3.69013299,28.3540708 C2.94812934,28.2052156 2.23623764,28.689279 2.09079129,29.4267371 C1.94591309,30.1647634 2.42599967,30.8811999 3.16402627,31.0260781 L10.0187537,32.3760014 C10.0738642,33.3378785 10.3778244,34.2719164 10.9289297,35.0928924 C11.7391113,36.3007784 12.9714282,37.1217544 14.3997568,37.4024203 C14.7537142,37.4728709 15.1065352,37.5063917 15.4542429,37.5063917 C17.5495794,37.5063917 19.4625398,36.2871428 20.3613527,34.4133856 L27.2132394,35.7633089 C27.3024389,35.7809215 27.3910703,35.7888756 27.4785654,35.7888756 C28.1165976,35.7888756 28.6847474,35.3394693 28.8131493,34.6906426 C28.9585956,33.9526163 28.478509,33.2367479 27.7404824,33.0918698" id="Fill-26" fill="#FFFFFF"></path>
                    <path d="M4.67161178,21.650304 C4.86819161,21.9713084 5.17499251,22.1820919 5.51474609,22.2639055 C5.85336338,22.345719 6.22266075,22.2985626 6.54423354,22.102551 C7.18567467,21.7105278 7.387936,20.8725072 6.99591264,20.2299301 C6.21243405,18.9481848 6.61752486,17.2687347 7.89927083,16.4846884 C8.54071196,16.0926652 8.74297329,15.2546446 8.35094992,14.6132038 C7.95892656,13.971763 7.11976929,13.7689336 6.47889631,14.1615249 C3.91654069,15.727345 3.10579091,19.0873814 4.67161178,21.650304" id="Fill-28" fill="#FFFFFF"></path>
                    <path d="M27.790366,25.8525652 C28.0233074,26.148003 28.3528343,26.3212886 28.6988375,26.3627635 C29.0448407,26.4042384 29.406184,26.3139026 29.7021901,26.0809613 C32.0639888,24.2253849 32.4753293,20.7937617 30.619752,18.4319641 C30.1550055,17.8410886 29.2988037,17.7382535 28.7073598,18.2029998 C28.116484,18.6677462 28.0136489,19.5233794 28.4783954,20.1153912 C29.406184,21.2965741 29.2005138,23.0129538 28.0193304,23.940742 C27.4284546,24.4054883 27.3256194,25.2611215 27.790366,25.8525652" id="Fill-30" fill="#FFFFFF"></path>
                    <path d="M34.9017835,15.0668144 C34.4370369,14.4759389 33.5814033,14.3731038 32.9899594,14.8378501 C32.3985154,15.3020283 32.2956803,16.1582296 32.7604269,16.7502415 C34.1097826,18.4660531 34.7091807,20.6039998 34.4489681,22.7714903 C34.1893236,24.9389807 33.1013167,26.8746662 31.3849362,28.2228851 C30.7934922,28.6870632 30.6912253,29.5438327 31.1559718,30.1347083 C31.3883451,30.4307142 31.7184401,30.6039998 32.0644433,30.6454747 C32.4098784,30.6869496 32.7717898,30.5966138 33.0677959,30.3642407 C35.3563033,28.5666155 36.8067898,25.984944 37.1533612,23.0959036 C37.4999325,20.2062951 36.7005458,17.3547526 34.9017835,15.0668144" id="Fill-32" fill="#FFFFFF"></path>
                </g>
            </g>
        </g>
    </g>
</svg>