<?xml version="1.0" encoding="UTF-8"?>
<svg width="50px" height="51px" viewBox="0 0 50 51" version="1.1" xmlns="http://www.w3.org/2000/svg" xmlns:xlink="http://www.w3.org/1999/xlink">
    <title>DF59D4E1-5C95-46CD-9ADC-67CDB927A732</title>
    <g id="Login-/-Register" stroke="none" stroke-width="1" fill="none" fill-rule="evenodd">
        <g id="Register---Headerdan-Tıklandıgında" transform="translate(-323.000000, -347.000000)">
            <g id="Group-79" transform="translate(299.000000, 209.000000)">
                <g id="Group-78" transform="translate(24.000000, 87.188406)">
                    <g id="icon_ins_travel" transform="translate(0.000000, 51.000000)">
                        <circle id="Oval" fill="#E5F6ED" cx="25" cy="25" r="25"></circle>
                        <g id="Group-3" transform="translate(13.000000, 13.000000)">
                            <polygon id="Path" points="0 0 24 0 24 24 0 24"></polygon>
                            <path d="M9,12 C10.93,12 12.5,10.43 12.5,8.5 C12.5,6.57 10.93,5 9,5 C7.07,5 5.5,6.57 5.5,8.5 C5.5,10.43 7.07,12 9,12 Z M9,7 C9.83,7 10.5,7.67 10.5,8.5 C10.5,9.33 9.83,10 9,10 C8.17,10 7.5,9.33 7.5,8.5 C7.5,7.67 8.17,7 9,7 Z M9.05,17 L4.77,17 C5.76,16.5 7.47,16 9,16 C9.11,16 9.23,16.01 9.34,16.01 C9.68,15.28 10.27,14.68 10.98,14.2 C10.25,14.07 9.56,14 9,14 C6.66,14 2,15.17 2,17.5 L2,19 L9,19 L9,17.5 C9,17.33 9.02,17.16 9.05,17 Z M16.5,14.5 C14.66,14.5 11,15.51 11,17.5 L11,19 L22,19 L22,17.5 C22,15.51 18.34,14.5 16.5,14.5 Z M17.71,12.68 C18.47,12.25 19,11.44 19,10.5 C19,9.12 17.88,8 16.5,8 C15.12,8 14,9.12 14,10.5 C14,11.44 14.53,12.25 15.29,12.68 C15.65,12.88 16.06,13 16.5,13 C16.94,13 17.35,12.88 17.71,12.68 Z" id="🔹-Icon-Color" fill="#2DC44D"></path>
                        </g>
                    </g>
                </g>
            </g>
        </g>
    </g>
</svg>