<svg width="22px" height="16px" viewBox="0 0 22 16" version="1.1" xmlns="http://www.w3.org/2000/svg" xmlns:xlink="http://www.w3.org/1999/xlink">
    <title>icon_reservationcode</title>
    <g id="Page-1" stroke="none" stroke-width="1" fill="none" fill-rule="evenodd">
        <g id="icon_reservationcode" transform="translate(-1.000000, -5.000000)">
            <rect id="Rectangle" x="0" y="0" width="24" height="24"></rect>
            <rect id="Rectangle" fill="#53605E" x="1" y="5" width="22" height="15.6" rx="2"></rect>
            <path d="M5.66992188,15.8 L5.66992188,9.80351562 L4.628125,9.80351562 L2.69628906,11.3416016 L3.30742188,12.1044922 L3.99648438,11.5507812 C4.07851563,11.4851562 4.22480469,11.3470703 4.43535156,11.1365234 L4.43535156,11.1365234 L4.41484375,11.7599609 L4.40253906,12.3300781 L4.40253906,15.8 L5.66992188,15.8 Z" id="Path" fill="#FFFFFF" fill-rule="nonzero"></path>
            <path d="M11.5228516,15.8 L11.5228516,14.7335937 L8.91015625,14.7335937 L8.91015625,14.6761719 L9.68125,13.9501953 C10.1953125,13.4798828 10.5541992,13.1175781 10.7579102,12.8632812 C10.9616211,12.6089844 11.1120117,12.3608398 11.209082,12.1188477 C11.3061523,11.8768555 11.3546875,11.6177734 11.3546875,11.3416016 C11.3546875,11.0244141 11.2753906,10.7427734 11.1167969,10.4966797 C10.9582031,10.2505859 10.7353516,10.0591797 10.4482422,9.92246094 C10.1611328,9.78574219 9.83027344,9.71738281 9.45566406,9.71738281 C9.17128906,9.71738281 8.91425781,9.74541016 8.68457031,9.80146484 C8.45488281,9.85751953 8.24296875,9.9375 8.04882813,10.0414062 C7.8546875,10.1453125 7.60996094,10.3230469 7.31464844,10.5746094 L7.31464844,10.5746094 L8.00371094,11.3908203 C8.24160156,11.1939453 8.46992188,11.0421875 8.68867188,10.9355469 C8.90742188,10.8289062 9.13300781,10.7755859 9.36542969,10.7755859 C9.58691406,10.7755859 9.76396484,10.834375 9.89658203,10.9519531 C10.0291992,11.0695312 10.0955078,11.2486328 10.0955078,11.4892578 C10.0955078,11.6505859 10.0654297,11.8064453 10.0052734,11.9568359 C9.94511719,12.1072266 9.84667969,12.2706055 9.70996094,12.4469727 C9.57324219,12.6233398 9.28203125,12.9398437 8.83632813,13.3964844 L8.83632813,13.3964844 L7.33105469,14.9181641 L7.33105469,15.8 L11.5228516,15.8 Z" id="Path" fill="#FFFFFF" fill-rule="nonzero"></path>
            <path d="M13.8402344,15.8820312 C14.6167969,15.8820312 15.2142578,15.7213867 15.6326172,15.4000977 C16.0509766,15.0788086 16.2601563,14.6296875 16.2601563,14.0527344 C16.2601563,13.65625 16.1357422,13.3411133 15.8869141,13.1073242 C15.6380859,12.8735352 15.2716797,12.7265625 14.7876953,12.6664062 L14.7876953,12.6664062 L14.7876953,12.6417969 C15.1978516,12.5433594 15.5164063,12.3628906 15.7433594,12.1003906 C15.9703125,11.8378906 16.0837891,11.5193359 16.0837891,11.1447266 C16.0837891,10.6962891 15.9040039,10.3462891 15.5444336,10.0947266 C15.1848633,9.84316406 14.6947266,9.71738281 14.0740234,9.71738281 C13.3166016,9.71738281 12.6644531,9.91425781 12.1175781,10.3080078 L12.1175781,10.3080078 L12.7041016,11.1816406 C12.9529297,11.0203125 13.1791992,10.9068359 13.3829102,10.8412109 C13.5866211,10.7755859 13.7869141,10.7427734 13.9837891,10.7427734 C14.5525391,10.7427734 14.8369141,10.9697266 14.8369141,11.4236328 C14.8369141,11.7189453 14.7295898,11.9274414 14.5149414,12.0491211 C14.300293,12.1708008 13.9605469,12.2316406 13.4957031,12.2316406 L13.4957031,12.2316406 L13.0322266,12.2316406 L13.0322266,13.2037109 L13.4875,13.2037109 C13.990625,13.2037109 14.3570313,13.2625 14.5867188,13.3800781 C14.8164063,13.4976562 14.93125,13.6972656 14.93125,13.9789062 C14.93125,14.2933594 14.8314453,14.5216797 14.6318359,14.6638672 C14.4322266,14.8060547 14.1232422,14.8771484 13.7048828,14.8771484 C13.4314453,14.8771484 13.1552734,14.8402344 12.8763672,14.7664062 C12.5974609,14.6925781 12.3417969,14.596875 12.109375,14.4792969 L12.109375,14.4792969 L12.109375,15.5580078 C12.6125,15.7740234 13.1894531,15.8820312 13.8402344,15.8820312 Z" id="Path" fill="#FFFFFF" fill-rule="nonzero"></path>
            <path d="M20.5257813,9.80351562 L20.5257813,13.5728516 L21.2476563,13.5728516 L21.2476563,14.5572266 L20.5257813,14.5572266 L20.5257813,15.8 L19.2871094,15.8 L19.2871094,14.5572266 L16.7277344,14.5572266 L16.7277344,13.6753906 L19.3568359,9.80351562 L20.5257813,9.80351562 Z M19.3404297,11.2554687 L19.3076172,11.2554687 L19.1996094,11.4778646 C19.1230469,11.6249132 19.0373698,11.7695312 18.9425781,11.9117187 L18.9425781,11.9117187 L17.8433594,13.5728516 L19.2871094,13.5728516 L19.2871094,12.5556641 C19.2871094,12.3861328 19.2939453,12.1400391 19.3076172,11.8173828 C19.3134766,11.6791016 19.3188337,11.5656808 19.3236886,11.4771205 L19.3327288,11.3331473 C19.335519,11.2962054 19.3380859,11.2703125 19.3404297,11.2554687 L19.3404297,11.2554687 Z" id="Combined-Shape" fill="#FFFFFF" fill-rule="nonzero"></path>
        </g>
    </g>
</svg>