<?xml version="1.0" encoding="UTF-8"?>
<svg width="33px" height="33px" viewBox="0 0 33 33" version="1.1" xmlns="http://www.w3.org/2000/svg" xmlns:xlink="http://www.w3.org/1999/xlink">
    <title>377B1C22-B491-4C3A-93F9-77B77B724B4C</title>
    <g id="Page-1" stroke="none" stroke-width="1" fill="none" fill-rule="evenodd">
        <g id="Araç-Kiralama-Ek-Hizmet-ve-Güvence" transform="translate(-192.000000, -354.000000)" fill="#2DC44D">
            <g id="Group-4" transform="translate(160.000000, 328.000000)">
                <g id="Group-14" transform="translate(16.000000, 15.000000)">
                    <g id="icon_lastikcam" transform="translate(16.500000, 11.784043)">
                        <path d="M22.4997295,17.9856604 C17.8209359,17.9856604 14.0143359,14.1790469 14.0143359,9.50003381 C14.0143359,4.82102067 17.8209359,1.01433956 22.4997295,1.01433956 C27.1791994,1.01433956 30.9856641,4.82102067 30.9856641,9.50003381 C30.9856641,14.1790469 27.1791994,17.9856604 22.4997295,17.9856604 Z M22.4997295,0 C17.2616311,0 13,4.26171384 13,9.50003381 C13,14.7383538 17.2616311,19 22.4997295,19 C27.7384366,19 32,14.7383538 32,9.50003381 C32,4.26171384 27.7384366,0 22.4997295,0 L22.4997295,0 Z" id="Fill-44"></path>
                        <path d="M24.5469591,13.3851948 C24.0206736,13.9623529 23.313251,14.2887904 22.5544514,14.3041563 C20.99002,14.3364176 19.6894559,13.0167619 19.6593542,11.3634378 C19.6154861,8.95663061 21.6671433,5.89235955 22.3838532,4.8970555 C23.1373834,5.85787329 25.2965372,8.82007614 25.3406688,11.2480896 C25.3551598,12.0489913 25.0732446,12.8079671 24.5469591,13.3851948 Z M22.3660689,4.000065 C22.2705603,4.00229002 22.1803211,4.04824853 22.1190638,4.12619026 C21.9893038,4.29180774 18.9432371,8.21823529 19.0008057,11.3767873 C19.0187877,12.3633308 19.3996366,13.2835438 20.0732689,13.9677067 C20.7302365,14.6350436 21.588958,15 22.4978049,15 C22.5208587,15 22.5439125,14.9997914 22.5669664,14.9993047 C23.5016336,14.9803929 24.3737262,14.5783081 25.0218676,13.8672376 C25.6700089,13.1562366 26.0171334,12.2212835 25.999349,11.2347401 C25.9407265,8.04775079 22.7533729,4.27421696 22.6176847,4.11513518 C22.5537927,4.03997461 22.4622362,3.9981183 22.3660689,4.000065 L22.3660689,4.000065 Z" id="Fill-45"></path>
                        <path d="M23.0083825,12.7796642 C23.041108,12.9116687 23.1582309,13 23.2874106,13 C23.3098017,13 23.332767,12.9972777 23.3563064,12.9915434 C24.6458064,12.6710022 25.2055849,11.6923497 24.9322981,10.2358395 C24.9030174,10.0786967 24.753169,9.97542152 24.5970052,10.0050777 C24.4414155,10.0348496 24.3386459,10.186316 24.3685007,10.3435167 C24.5855225,11.5007432 24.2094662,12.1829502 23.2185148,12.4291194 C23.0646474,12.4674059 22.9704898,12.6243749 23.0083825,12.7796642" id="Fill-46"></path>
                        <path d="M24.1522469,9.7629998 C24.2218771,9.91077008 24.3858165,10 24.5594513,10 C24.6149792,10 24.6722699,9.99063968 24.7277978,9.97076818 C24.9525535,9.88974772 25.0592022,9.66540696 24.9666558,9.46960751 C24.8908558,9.31186312 24.8379721,9.21741597 24.8353279,9.21342632 C24.7277978,9.02368806 24.4633793,8.94604345 24.2456747,9.03972336 C24.0270888,9.13340327 23.9380679,9.36334487 24.0455981,9.55331331 C24.0455981,9.55400383 24.0896678,9.63134154 24.1522469,9.7629998" id="Fill-47"></path>
                        <path d="M13.6718258,19.1523932 L11.0721413,22.4428832 C10.9449935,22.6038144 10.9903336,22.8249413 11.1733706,22.9367332 C11.2435813,22.97973 11.3237823,23 11.4032846,23 C11.5309914,23 11.656742,22.9471753 11.7351265,22.8476682 L14.0032486,19.9768892 L16.2648735,22.8396831 C16.3920213,23.0006142 16.6433828,23.0405399 16.8266294,22.928748 C17.0096664,22.8169561 17.0550065,22.5958293 16.9278587,22.4348981 L14.334811,19.1524547 C14.2594305,19.0569402 14.1355662,19 14.0033184,19 C13.8710707,19 13.7472762,19.0569402 13.6718258,19.1523932" id="Fill-48"></path>
                        <path d="M8.95764329,21.8343554 C9.03426682,21.9434711 9.1488321,22 9.26467557,22 C9.34809362,22 9.43211714,21.9709917 9.50302249,21.91 L12.8498357,19.0326035 C12.9662174,18.9326366 13.0213809,18.7684796 12.9923864,18.608711 C12.9633246,18.4490168 12.855083,18.3211573 12.7128686,18.2786119 L8.49023308,17.0149673 C8.28350429,16.9531574 8.06964461,17.0883806 8.01360651,17.3174714 C7.95750114,17.5465623 8.08000459,17.7824962 8.28720428,17.8445293 L11.7575301,18.8830994 L9.02592501,21.2313554 C8.85639799,21.3769918 8.82585622,21.6469918 8.95764329,21.8343554" id="Fill-49"></path>
                        <path d="M24.6859373,20.3281207 C23.8726911,20.5237255 23.0256149,20.6275255 22.1539953,20.6275255 C21.2680478,20.6275255 20.4065109,20.5198407 19.5806613,20.3176249 C18.795474,23.1964226 16.2228697,25.3085451 13.1700122,25.3085451 C9.4934228,25.3085451 6.51293499,22.2456608 6.51293499,18.4683079 C6.51293499,15.3258186 8.5757016,12.6786115 11.3858455,11.8773135 C11.1931473,11.0370309 11.0906623,10.1609669 11.0906623,9.26023082 C11.0906623,7.75359707 11.3766252,6.31579984 11.8946882,5 C11.4294928,5.0460046 10.9711297,5.11613607 10.5213236,5.21046255 L10.0483672,6.84038863 C10.0120829,6.96531669 9.90070926,7.04608033 9.78004898,7.04608033 C9.75351566,7.04608033 9.72658435,7.0421955 9.69985203,7.0340169 C9.5515971,6.98862569 9.46728748,6.82825705 9.51146546,6.67599885 L9.89354526,5.35890407 C8.79499949,5.64788114 7.75217369,6.0794384 6.78390652,6.6321752 L6.80871518,8.33284615 C6.81110317,8.49178354 6.68759057,8.61773392 6.53290132,8.61773392 C6.53144198,8.61773392 6.52998265,8.61773392 6.52858965,8.61773392 C6.37582406,8.61773392 6.25085213,8.49914428 6.2485968,8.34163814 L6.22849781,6.96593009 C5.39356057,7.49903826 4.62097663,8.12620028 3.92447699,8.83174053 L4.39856108,10.4778193 C4.44254006,10.6302139 4.35789877,10.7905825 4.20951117,10.8357011 C4.18297785,10.8437434 4.15624554,10.8476964 4.12991122,10.8476964 C4.00898561,10.8476964 3.89747933,10.7667283 3.86146035,10.6415957 L3.47725788,9.30814376 C2.77664558,10.0904265 2.16478722,10.9577666 1.65753648,11.8933299 L2.57214001,13.3472799 C2.65611797,13.4807954 2.61890499,13.6589525 2.48895806,13.7452367 C2.44192775,13.7764517 2.38925911,13.7913776 2.33718747,13.7913776 C2.24524952,13.7913776 2.15523523,13.7449641 2.10163792,13.6597704 L1.35843964,12.4782358 C0.927803858,13.3731106 0.590499031,14.3236679 0.359924482,15.3169585 L1.63173283,16.4727986 C1.7476171,16.5781662 1.75842943,16.7600036 1.65594448,16.8790704 C1.60055618,16.9434087 1.52347689,16.9761912 1.44599959,16.9761912 C1.38006429,16.9761912 1.31386366,16.9524051 1.26053169,16.9039469 L0.226063884,15.9638173 C0.0782069599,16.775543 0,17.612486 0,18.4683079 C0,18.7844788 0.0114093275,19.0978554 0.0321716502,19.4086421 L1.59233085,20.1235195 C1.73362078,20.1882667 1.79710175,20.3584497 1.73408511,20.5036198 C1.6876518,20.6106912 1.58523319,20.6742798 1.47810491,20.6742798 C1.43996326,20.6742798 1.40122461,20.6662375 1.3641443,20.649267 L0.0918716196,20.0662012 C0.208750893,21.0869582 0.43607511,22.0725472 0.761506276,23.0110411 L2.46507807,23.2693484 C2.61817532,23.2932027 2.72384427,23.4390543 2.70129095,23.5964923 C2.68072763,23.7396177 2.56112869,23.8425317 2.42448209,23.8425317 C2.41088376,23.8425317 2.39708644,23.8411686 2.38322278,23.839124 L0.992213491,23.6278436 C1.3669303,24.5608851 1.83982039,25.4407658 2.39828044,26.2552176 L4.11312889,26.0357586 C4.26708848,26.0159937 4.40652107,26.1284494 4.4256914,26.2858874 C4.44479539,26.4433254 4.33580978,26.5871323 4.18224819,26.6068973 L2.78168691,26.7861449 C3.3886366,27.5849211 4.08108991,28.3121346 4.84471885,28.9534729 L6.44308603,28.2651077 C6.58583529,28.2037682 6.75001021,28.2732863 6.80971017,28.4198195 C6.86947648,28.5663526 6.80221451,28.7346954 6.65953158,28.7967164 L5.35276559,29.3583134 C6.25317379,30.0419077 7.24120829,30.6103202 8.29657108,31.0431042 L9.62542606,29.8899222 C9.74369834,29.7870081 9.92027758,29.8026838 10.0201755,29.9239996 C10.1199408,30.0453155 10.1050822,30.2272892 9.98680988,30.3295217 L8.9002041,31.2727865 C9.95835289,31.6449126 11.0771967,31.8820919 12.2374987,31.9659225 L13.1623176,30.4590161 C13.2447699,30.3240693 13.4177671,30.2838579 13.5486427,30.3690516 C13.6795183,30.4535637 13.7187213,30.6314482 13.6362027,30.7657135 L12.8811307,31.9959107 C12.9771813,31.9986369 13.073431,32 13.1700122,32 C14.0785794,32 14.965721,31.9052646 15.8225482,31.7253355 L16.3175273,30.0194166 C16.3617053,29.867431 16.5175885,29.7801927 16.6660425,29.8258565 C16.8142974,29.8715203 16.898607,30.0316845 16.854429,30.1836701 L16.4503266,31.5767576 C17.5576283,31.2850544 18.6082815,30.848181 19.582983,30.2893103 L19.557113,28.5165995 C19.554725,28.3571169 19.6782376,28.228304 19.8329268,28.2255778 C19.9876824,28.2221701 20.1149097,28.3509829 20.1172314,28.509784 L20.1383253,29.9519432 C20.9777732,29.4128374 21.7540055,28.7796777 22.4524952,28.0667767 L21.9669354,26.3819859 C21.9231554,26.2293188 22.008062,26.0691546 22.1566486,26.0241723 C22.3045719,25.97919 22.4604551,26.0657468 22.5042351,26.218414 L22.8989183,27.5883288 C23.6007246,26.7990943 24.2116543,25.9239845 24.717114,24.9800382 L23.7937545,23.5126617 C23.7095112,23.3790779 23.7466578,23.2011935 23.8766711,23.1146367 C24.0066844,23.0280798 24.1804776,23.0669282 24.2640576,23.2005119 L25.0136238,24.3918608 C25.4408103,23.4915336 25.7744668,22.536001 26,21.537258 L24.7343606,20.3871429 C24.715124,20.369559 24.699204,20.3493169 24.6859373,20.3281207" id="Fill-50"></path>
                        <path d="M26.8480836,21 C26.9135889,20.6709992 26.9637631,20.33737 27,20 C26.6738676,20.119262 26.3400697,20.2252092 26,20.3175881 L26.8480836,21" id="Fill-51"></path>
                        <path d="M14.1571811,17 L14.0047405,17.6965499 C13.9823601,17.7989294 14.0404796,17.9018938 14.1525547,17.9583015 C14.2078983,17.9861455 14.2709912,18 14.3341419,18 C14.3990275,18 14.4639131,17.9853358 14.520182,17.9560074 L15,17.7057712 C14.700092,17.4848635 14.4186319,17.2490666 14.1571811,17" id="Fill-52"></path>
                        <path d="M12.5884929,14.9624864 C12.2677259,14.3426874 12.0003485,13.6861325 11.7930422,13 C11.6703869,13.0786962 11.5985469,13.2333635 11.6239238,13.3948103 L12.1584334,16.7991519 L9.55141213,14.9031319 C9.38903647,14.7850211 9.16904166,14.8320129 9.06005565,15.0080823 C8.95113094,15.1842182 8.9944679,15.4227661 9.15690486,15.5408768 L12.4486132,17.9349294 C12.5082552,17.9782655 12.5770304,18 12.6458669,18 C12.7128031,18 12.7796781,17.9795284 12.8382167,17.9384521 C12.9571329,17.8550368 13.0187363,17.7028953 12.9949531,17.5516178 L12.5884929,14.9624864" id="Fill-53"></path>
                        <path d="M15.3287719,18 L14.2801953,18.3191662 C14.141496,18.3613719 14.0358642,18.4883583 14.0074551,18.6470545 C13.9791117,18.8058245 14.0329117,18.9689556 14.1462856,19.0683716 L17.3881995,21.9098233 C17.4574179,21.9704339 17.539299,22 17.6207209,22 C17.7336354,22 17.8454346,21.9430852 17.9201642,21.835095 C18.0486283,21.6489763 18.0189071,21.3806638 17.8537014,21.2358637 L15.2117896,18.9202454 L16.1061174,18.6480893 C15.8382324,18.4449701 15.5791391,18.2283243 15.3287719,18" id="Fill-54"></path>
                    </g>
                </g>
            </g>
        </g>
    </g>
</svg>