<?xml version="1.0" encoding="UTF-8"?>
<svg width="20px" height="25px" viewBox="0 0 20 25" version="1.1" xmlns="http://www.w3.org/2000/svg" xmlns:xlink="http://www.w3.org/1999/xlink">
    <title>Group 105</title>
    <g id="Reservation-OK" stroke="none" stroke-width="1" fill="none" fill-rule="evenodd">
        <g id="Enuygun-Güvencesi" transform="translate(-76.000000, -783.000000)">
            <g id="Group-18" transform="translate(59.000000, 763.000000)">
                <g id="Group-8" transform="translate(17.000000, 20.000000)">
                    <path d="M9.85576923,0 C6.059513,2.03784877 2.21890041,3.01462531 0,3.44664082 L0,13.9814971 C0,15.4029335 0.373242633,16.7758999 1.07969898,17.9507713 C2.40930824,20.1603726 5.00794246,23.1623535 9.85576923,25 C14.703596,23.1623535 17.3022302,20.1614263 18.6329213,17.9528787 C19.3382958,16.7769536 19.7115385,15.4029335 19.7115385,13.9814971 L19.7115385,3.44664082 C17.4926381,3.01462531 13.6509436,2.03784877 9.85576923,0" id="Fill-1" fill="currentColor"></path>
                    <g id="Group-106" transform="translate(3.000000, 6.000000)" fill="#FFFFFF">
                        <path d="M8.84413207,0 C9.45763284,0 9.95555556,0.506346934 9.95555556,1.13043478 C9.95555556,1.75513269 9.45763284,2.26086957 8.84413207,2.26086957 C8.23063131,2.26086957 7.73333333,1.75513269 7.73333333,1.13043478 C7.73333333,0.506346934 8.23063131,0 8.84413207,0" id="Path"></path>
                        <path d="M2.9045549,11.7184374 C2.69474583,12.0148016 2.27959172,12.0890486 1.9766759,11.8844013 C1.67376007,11.679754 1.59787169,11.273579 1.80704304,10.9772148 C2.01621439,10.6808506 2.43136849,10.6066035 2.73428432,10.8112508 C3.03720014,11.0158981 3.11308853,11.4220731 2.9045549,11.7184374" id="Path"></path>
                        <path d="M11.9821715,5.44510577 C11.7542087,5.44146342 10.3752515,5.34858352 10.1460464,5.3097318 C9.9559739,5.27877183 9.57520777,4.88782637 9.39880062,4.73545477 L9.17083787,5.88947235 L9.07207471,6.97610647 L9.31618742,7.46418123 L11.3225081,10.9638716 C11.5442594,11.3214288 11.5156864,11.5873203 11.1715682,11.7918989 C10.8274501,11.9958704 10.2541268,11.9248446 10.0323756,11.5672874 L8.006178,8.12951698 L7.11109807,9.5397131 L5.84332699,11.5223651 C5.55262788,11.9794799 4.9761989,11.9897999 4.63083842,11.7864354 C4.04509216,11.4410193 4.40970834,11.0367185 4.63083842,10.6791613 L6.93655438,7.0525958 L6.89928526,5.65575495 L6.99307921,4.38578927 C6.74399728,4.47563388 6.45640394,4.62800548 6.18992976,4.83744055 L6.15266065,6.33808833 C6.15266065,6.56330691 5.94830166,6.85590895 5.57374705,6.92389946 L5.49113384,6.9336124 L5.4283975,6.9336124 C5.39671875,6.93118416 5.35199581,6.93725474 5.15198489,6.92693476 L4.59915968,7.70214803 C4.82277437,7.85876904 4.88426841,8.17079694 4.72401121,8.38933788 L3.10404698,10.6664131 C3.0431741,10.5747473 2.96056089,10.5103991 2.87794768,10.4460509 C2.76427688,10.3756322 2.64750032,10.3197828 2.50898344,10.2912511 C2.10834044,10.2080841 1.68595713,10.3725969 1.45364631,10.7022295 C1.31202367,10.9092363 1.25674115,11.1654149 1.29711603,11.4252358 L0.215069367,10.6979801 C-0.00916647887,10.5413591 -0.0700393678,10.2299382 0.0895966777,10.0113973 L2.36673965,6.78427609 C2.52699684,6.56573515 2.84564778,6.50563639 3.06926248,6.66225739 L4.23454349,7.45386124 L4.85693773,6.57241279 C4.8482416,6.55237987 4.84265123,6.53234695 4.84265123,6.5141352 C4.8494839,5.82998065 4.81345709,4.86597228 4.89420684,4.46531389 C4.93271826,4.2765188 5.03955639,4.24616589 5.19981359,4.13993071 C5.45697049,3.96995443 6.96326391,3.21538113 6.96326391,3.21538113 C6.96326391,3.21538113 7.83846698,2.80865215 7.98195308,2.76190868 C8.34967502,2.64171116 8.87951761,2.69695345 9.22612039,2.83232742 C9.41184481,2.9051744 9.43234283,2.92035086 9.53110598,2.98834137 L9.72490539,3.14739061 C9.72490539,3.14739061 9.972745,3.41813855 10.1615752,3.65185595 C10.2820787,3.80179931 10.8262078,4.34936578 11.1939297,4.36454224 C11.7660106,4.3882175 11.7604203,4.39003868 11.9461447,4.38700339 C12.3654222,4.38700339 12.8244535,4.57033495 12.7989863,4.95642395 C12.7697921,5.40928934 12.2095131,5.44874812 11.9821715,5.44510577" id="Path"></path>
                    </g>
                </g>
            </g>
        </g>
    </g>
</svg>