<svg width="24" height="24" viewBox="0 0 24 24" xmlns="http://www.w3.org/2000/svg" fill="currentColor">
    <path d="M17.941 15.385c0 1.341-1.108 2.435-2.466 2.435s-2.466-1.094-2.466-2.435c0-1.342 1.108-2.436 2.466-2.436s2.466 1.094 2.466 2.436zm1.33 0c0-2.075-1.696-3.75-3.796-3.75-2.1 0-3.795 1.675-3.795 3.75 0 2.074 1.695 3.748 3.795 3.748 2.1 0 3.795-1.674 3.795-3.748zm1.04-3.901a.878.878 0 00-.886-.876.878.878 0 00-.887.876c0 .485.395.875.887.875.49 0 .886-.39.886-.875zM15.475 9.39c1.08 0 3.39-.086 4.364.294.337.134.587.295.847.552.26.257.424.505.56.838.384.96.298 3.244.298 4.31 0 1.065.086 3.349-.299 4.31-.135.333-.298.58-.559.837-.26.257-.51.419-.847.552-.973.38-3.285.295-4.364.295-1.079 0-3.39.085-4.363-.295a2.368 2.368 0 01-.848-.552 2.334 2.334 0 01-.559-.837c-.385-.961-.298-3.245-.298-4.31 0-1.066-.087-3.35.298-4.31.135-.333.299-.58.56-.838.26-.257.51-.418.847-.552.973-.38 3.284-.294 4.363-.294zm7.398 5.994c0-1.009.01-2.008-.048-3.016-.058-1.17-.328-2.208-1.195-3.064-.866-.856-1.916-1.123-3.101-1.18-1.021-.057-2.033-.047-3.054-.047-1.02 0-2.032-.01-3.053.047-1.185.057-2.235.324-3.102 1.18-.867.856-1.137 1.893-1.194 3.064-.058 1.008-.048 2.007-.048 3.016 0 1.008-.01 2.007.048 3.016.057 1.17.327 2.207 1.194 3.063.867.857 1.917 1.123 3.102 1.18 1.02.057 2.032.048 3.053.048s2.033.01 3.054-.048c1.185-.057 2.235-.323 3.101-1.18.867-.856 1.137-1.893 1.195-3.063.058-1.009.048-2.008.048-3.016z"/>
</svg>