<?xml version="1.0" encoding="UTF-8"?>
<svg width="90px" height="90px" viewBox="0 0 90 90" version="1.1" xmlns="http://www.w3.org/2000/svg" xmlns:xlink="http://www.w3.org/1999/xlink">
    <title>9EC507C9-B1AE-4B85-9976-CC0706EDFD46</title>
    <defs>
        <polygon id="path-1" points="0 0 23.434714 0 23.434714 27.508955 0 27.508955"></polygon>
        <polygon id="path-3" points="0 0 26.9179563 0 26.9179563 32.9420215 0 32.9420215"></polygon>
        <polygon id="path-5" points="0 0 4.33296996 0 4.33296996 7.63648986 0 7.63648986"></polygon>
    </defs>
    <g id="Reklam-Sayfası" stroke="none" stroke-width="1" fill="none" fill-rule="evenodd">
        <g id="Enuygun-Reklam" transform="translate(-291.000000, -695.000000)">
            <g id="Value-Proposition" transform="translate(0.000000, 506.000000)">
                <g id="Group-10" transform="translate(160.000000, 157.000000)">
                    <g id="ad_icon_01" transform="translate(131.000000, 32.000000)">
                        <circle id="Oval" fill="#FFEBEC" cx="45" cy="45" r="45"></circle>
                        <g id="icon_announcement" transform="translate(20.000000, 23.000000)">
                            <path d="M48.0055786,19.8688924 C48.3050991,19.247783 48.6354114,18.6440619 48.7718752,18.2100504 C49.3562201,16.3592419 47.1790979,11.2276126 45.404369,10.378369 C45.0684581,10.2177013 44.5065073,10.1133716 43.9431568,9.98956703 C44.7969302,11.8299426 46.1139806,14.8993219 48.0055786,19.8688924" id="Fill-1" fill="#FF3B42"></path>
                            <g id="Group-5" transform="translate(3.416249, 16.491045)">
                                <mask id="mask-2" fill="white">
                                    <use xlink:href="#path-1"></use>
                                </mask>
                                <g id="Clip-4"></g>
                                <path d="M20.4409086,20.9313163 C20.2778519,19.520779 20.2442608,18.0963311 20.1301911,16.1877934 C21.5025269,15.5778126 22.0175902,15.3329856 23.434714,14.8106416 C21.351367,6.8836724 18.4667326,2.27230047 16.7892778,0 C12.3573542,1.89740915 8.86738045,3.31211963 4.41726158,5.1698835 C0.314950397,6.88228134 -0.944715268,9.81324987 0.699848239,13.8348113 C1.18761878,15.0276474 1.6648921,16.2253521 2.16875837,17.4105373 C3.10161077,19.6028517 6.24167735,21.1239784 8.58395567,20.8930621 C9.52800511,20.8005564 10.7946689,21.2742132 11.4944832,21.9314902 C13.0242771,23.3712398 14.2013647,25.1761433 15.6814719,26.6770996 C16.9978225,28.0125196 20.0993993,27.6807512 21.7537602,26.1074596 C23.3381397,24.6002434 21.9231152,23.5013041 21.11413,22.3258564 C20.8209078,21.9015823 20.4968938,21.4167971 20.4409086,20.9313163" id="Fill-3" fill="#FF3B42" mask="url(#mask-2)"></path>
                            </g>
                            <g id="Group-8" transform="translate(23.082044, 0.000000)">
                                <mask id="mask-4" fill="white">
                                    <use xlink:href="#path-3"></use>
                                </mask>
                                <g id="Clip-7"></g>
                                <path d="M26.7790924,29.9787167 C25.9155216,27.3649105 24.6390604,24.8867327 23.7572944,22.2764041 C23.7286021,22.1901582 23.7160054,22.095566 23.7118065,21.9974961 C20.9867298,14.7361502 19.3512639,11.1423405 18.5464775,9.52731699 C18.5205843,9.49323596 18.4967907,9.45985046 18.4792953,9.42229178 C18.4408055,9.33882803 18.4044152,9.25397322 18.3652256,9.16911841 C18.0720034,8.59947835 17.9327404,8.38038602 17.9278417,8.37343071 L17.9887255,8.33378543 C16.9306063,5.91820553 16.027846,3.43098592 14.8920474,1.0529647 C14.6128215,0.467327421 13.3706512,-0.136393671 12.7856065,0.0263606329 C12.199862,0.190505999 11.7309864,1.25258216 11.4811527,2.00932012 C11.1536396,2.99627891 11.3054993,4.168249 10.8800123,5.09191445 C8.88834089,9.41742306 5.74687469,12.7455399 1.36323817,14.6888541 C0.663423917,14.9997566 0.703313329,14.9844549 0,15.288402 C1.76493156,17.7255434 4.72304643,22.4196835 6.78399942,30.2325856 C11.60432,28.6064337 15.7024323,28.2238915 21.1343906,30.3230047 C22.0336519,30.6707703 22.7761548,31.3989915 23.6523223,31.8302208 C24.5060957,32.2496262 25.7314705,33.2581464 26.3333107,32.8443053 C26.9365506,32.4318553 27.0499205,30.7980525 26.7790924,29.9787167" id="Fill-6" fill="#FF3B42" mask="url(#mask-4)"></path>
                            </g>
                            <g id="Group-11" transform="translate(0.000000, 27.923283)">
                                <mask id="mask-6" fill="white">
                                    <use xlink:href="#path-5"></use>
                                </mask>
                                <g id="Clip-10"></g>
                                <path d="M4.33296996,7.57016171 C4.33296996,7.57016171 1.45323429,1.94609633 1.66247875,0 C1.66247875,0 -0.79316948,0.805425143 0.264249864,4.568249 C1.32306884,8.33037733 3.95646989,7.57781255 4.33296996,7.57016171" id="Fill-9" fill="#FF3B42" mask="url(#mask-6)"></path>
                            </g>
                        </g>
                    </g>
                </g>
            </g>
        </g>
    </g>
</svg>