<?xml version="1.0" encoding="UTF-8"?>
<svg width="29px" height="30px" viewBox="0 0 29 30" version="1.1" xmlns="http://www.w3.org/2000/svg" xmlns:xlink="http://www.w3.org/1999/xlink">
    <title>C497D2E9-C9BA-4CF0-8982-05D021C1B3A9</title>
    <g id="Page-1" stroke="none" stroke-width="1" fill="none" fill-rule="evenodd">
        <g id="Araç-Kiralama-Ek-Hizmet-ve-Güvence" transform="translate(-192.000000, -460.000000)">
            <g id="Group-4-Copy-3" transform="translate(160.000000, 430.000000)">
                <g id="Group-14" transform="translate(16.000000, 15.000000)">
                    <g id="Two-Tone-/-Maps-/-beenhere" transform="translate(16.000000, 15.000000)">
                        <polygon id="Path" points="0 0 28.8 0 28.8 28.8 0 28.8"></polygon>
                        <path d="M23.7333333,1.2 L5.06666667,1.2 C3.6,1.2 2.41333333,2.37818182 2.41333333,3.81818182 L2.4,20.7447273 C2.4,21.648 2.86666667,22.4465455 3.57333333,22.9178182 L14.4,30 L25.2133333,22.9178182 C25.92,22.4465455 26.3866667,21.648 26.3866667,20.7447273 L26.4,3.81818182 C26.4,2.37818182 25.2,1.2 23.7333333,1.2 Z" id="🔹-Primary-Color" fill="#2DC44D"></path>
                        <polygon id="Path" fill="#FFFFFF" points="10.7506667 19.2 14.6573333 16.6933333 18.564 19.2 17.3773333 14.72 20.964 11.7866667 16.3373333 11.5066667 14.6573333 7.2 12.964 11.4933333 8.33733333 11.7733333 11.924 14.7066667"></polygon>
                    </g>
                </g>
            </g>
        </g>
    </g>
</svg>