<?xml version="1.0" encoding="UTF-8"?>
<svg width="20px" height="20px" viewBox="0 0 20 20" version="1.1" xmlns="http://www.w3.org/2000/svg" xmlns:xlink="http://www.w3.org/1999/xlink">
    <title>6437AC00-EDCE-459E-8617-64FC17F1CDAB</title>
    <defs>
        <path d="M2.5,14.1666667 L2.5,15.8333333 L7.5,15.8333333 L7.5,14.1666667 L2.5,14.1666667 Z M10.8333333,17.5 L10.8333333,15.8333333 L17.5,15.8333333 L17.5,14.1666667 L10.8333333,14.1666667 L10.8333333,12.5 L9.16666667,12.5 L9.16666667,17.5 L10.8333333,17.5 Z M5.83333333,7.5 L5.83333333,9.16666667 L2.5,9.16666667 L2.5,10.8333333 L5.83333333,10.8333333 L5.83333333,12.5 L7.5,12.5 L7.5,7.5 L5.83333333,7.5 Z M17.5,10.8333333 L17.5,9.16666667 L9.16666667,9.16666667 L9.16666667,10.8333333 L17.5,10.8333333 Z M12.5,7.5 L14.1666667,7.5 L14.1666667,5.83333333 L17.5,5.83333333 L17.5,4.16666667 L14.1666667,4.16666667 L14.1666667,2.5 L12.5,2.5 L12.5,7.5 Z M2.5,4.16666667 L10.8333333,4.16666667 L10.8333333,5.825 L2.5,5.825 L2.5,4.16666667 Z" id="path-1"></path>
    </defs>
    <g id="Page-1" stroke="none" stroke-width="1" fill="none" fill-rule="evenodd">
        <g id="Mobile---Araç-Kiralama-Search-Result" transform="translate(-159.000000, -183.000000)">
            <g id="Group-4" transform="translate(16.000000, 168.000000)">
                <g id="Group-2" transform="translate(131.000000, 5.000000)">
                    <g id="Group-13" transform="translate(12.000000, 9.000000)">
                        <g id="icon/image/tune_24px" transform="translate(0.000000, 1.000000)">
                            <rect id="Rectangle" stroke-opacity="0.01" stroke="#FFFFFF" stroke-width="0.1" opacity="0.2" x="0.05" y="0.05" width="19.9" height="19.9"></rect>
                            <mask id="mask-2" fill="white">
                                <use xlink:href="#path-1"></use>
                            </mask>
                            <g fill-rule="nonzero"></g>
                            <g id="↳-Color" mask="url(#mask-2)" fill="#53605E">
                                <rect id="Rectangle" x="0" y="0" width="20" height="20"></rect>
                            </g>
                        </g>
                    </g>
                </g>
            </g>
        </g>
    </g>
</svg>