<?xml version="1.0" encoding="UTF-8"?>
<svg width="20px" height="13px" viewBox="0 0 20 13" version="1.1" xmlns="http://www.w3.org/2000/svg" xmlns:xlink="http://www.w3.org/1999/xlink">
    <title>EE8792EE-F8BE-4392-90A4-B26E31B12BF6</title>
    <g id="Widgets" stroke="none" stroke-width="1" fill="none" fill-rule="evenodd">
        <g id="Enuygun_SW_Otel" transform="translate(-827.000000, -309.000000)" fill="#53605E" fill-rule="nonzero">
            <g id="Search-Widget-Uçak" transform="translate(160.000000, 162.000000)">
                <g id="search-form" transform="translate(16.000000, 114.000000)">
                    <g id="icon_passenger" transform="translate(651.000000, 29.000000)">
                        <path d="M6.86282636,9.26315789 C7.58115762,9.26315789 8.18897638,9.00274123 8.68628264,8.48190789 C9.21121702,7.96107456 9.47368421,7.34429825 9.47368421,6.63157895 C9.47368421,5.91885965 9.21812405,5.30208333 8.70700373,4.78125 C8.19588341,4.26041667 7.58115762,4 6.86282636,4 C6.1444951,4 5.52286227,4.26041667 4.99792789,4.78125 C4.47299351,5.30208333 4.21052632,5.91885965 4.21052632,6.63157895 C4.21052632,7.34429825 4.47299351,7.96107456 4.99792789,8.48190789 C5.52286227,9.00274123 6.1444951,9.26315789 6.86282636,9.26315789 Z M13.1578947,9.26315789 C13.870614,9.26315789 14.4873904,9.00274123 15.0082237,8.48190789 C15.529057,7.96107456 15.7894737,7.34429825 15.7894737,6.63157895 C15.7894737,5.91885965 15.529057,5.30208333 15.0082237,4.78125 C14.4873904,4.26041667 13.870614,4 13.1578947,4 C12.4451754,4 11.8283991,4.26041667 11.3075658,4.78125 C10.7867325,5.30208333 10.5263158,5.91885965 10.5263158,6.63157895 C10.5263158,7.34429825 10.7867325,7.96107456 11.3075658,8.48190789 C11.8283991,9.00274123 12.4451754,9.26315789 13.1578947,9.26315789 Z M20,16.6315789 L20,14.4523026 C20,13.8218202 19.5954592,13.2598684 18.7863777,12.7664474 C17.9772962,12.2730263 17.0959752,11.9166667 16.1424149,11.6973684 C15.1888545,11.4780702 14.3075335,11.3684211 13.498452,11.3684211 C13.122807,11.3684211 12.8338493,11.3821272 12.6315789,11.4095395 C13.8452012,12.2319079 14.4520124,13.2461623 14.4520124,14.4523026 L14.4520124,14.4523026 L14.4520124,16.6315789 L20,16.6315789 Z M12.6315789,16.6315789 L12.6315789,14.4523026 C12.6315789,13.8218202 12.2443232,13.2598684 11.4698117,12.7664474 C10.6953001,12.2730263 9.84333744,11.9166667 8.9139236,11.6973684 C7.98450977,11.4780702 7.12550607,11.3684211 6.33691252,11.3684211 C5.54831896,11.3684211 4.68931526,11.4780702 3.75990143,11.6973684 C2.83048759,11.9166667 1.97148389,12.2730263 1.18289034,12.7664474 C0.394296779,13.2598684 4.97379915e-14,13.8218202 4.97379915e-14,14.4523026 L4.97379915e-14,14.4523026 L4.97379915e-14,16.6315789 L12.6315789,16.6315789 Z" id=""></path>
                    </g>
                </g>
            </g>
        </g>
    </g>
</svg>