<svg width="20" height="21" xmlns="http://www.w3.org/2000/svg"><path d="M7.779 8.477c-.433.45-.702 1.137-.702 1.95 0 .81.269 1.597.702 2.209.434.612 1.034 1.053 1.697 1.176a1.832 1.832 0 0 0 1.697-.547c.433-.45.702-1.136.702-1.948 0-.813-.269-1.598-.702-2.21-.434-.612-1.034-1.053-1.696-1.176a1.835 1.835 0 0 0-1.698.546zm-.455 2.145c.028.605.22 1.186.52 1.67.142-.137.302-.248.474-.333a4.542 4.542 0 0 1-.202-1.19l-.792-.147zm1.036.192c.014.362.075.717.178 1.054.252-.084.527-.114.815-.078V11l-.993-.186zm1.239.23v.79c.289.072.563.203.816.382.102-.3.164-.631.177-.987l-.993-.184zm1.237.23a3.78 3.78 0 0 1-.201 1.115 3.018 3.018 0 0 1 .373.383c.034.04.068.083.1.126.301-.372.492-.883.52-1.476l-.792-.148zm.792-.153a3.485 3.485 0 0 0-.52-1.67 1.922 1.922 0 0 1-.474.333c.118.38.189.781.202 1.19l.792.147zm-1.036-.192a4.191 4.191 0 0 0-.177-1.054 1.845 1.845 0 0 1-.816.078v.791l.993.185zm-1.239-.23v-.79a2.44 2.44 0 0 1-.815-.383 3.45 3.45 0 0 0-.177.989l.992.183zm-1.237-.23c.013-.404.084-.779.201-1.115a3.163 3.163 0 0 1-.474-.509c-.3.372-.491.882-.519 1.476l.792.148zm1.79-2.106a4.448 4.448 0 0 1 .628 1.129c.146-.075.282-.172.405-.288a2.638 2.638 0 0 0-1.033-.841zm.37 1.122a3.979 3.979 0 0 0-.677-1.106v1.274c.253.03.494.004.716-.07l-.04-.098zm-.923-1.15a2.23 2.23 0 0 0-.36.353c-.138.17-.258.367-.355.583.222.157.463.272.715.336V8.334zm-.544.123c.075-.092.154-.177.237-.255a1.64 1.64 0 0 0-1.032.458 2.766 2.766 0 0 0 .405.437c.106-.238.238-.453.39-.64zm.238 4.922a4.451 4.451 0 0 1-.585-1.018l-.043-.11c-.147.073-.283.17-.405.287.283.375.64.67 1.033.841zm-.37-1.122a4.03 4.03 0 0 0 .677 1.105V12.09a1.658 1.658 0 0 0-.716.07c.013.033.025.066.039.098zm.922 1.15a2.32 2.32 0 0 0 .36-.352c.138-.172.258-.368.356-.585a2.195 2.195 0 0 0-.716-.335v1.272zm.544-.122a2.706 2.706 0 0 1-.237.254 1.64 1.64 0 0 0 1.033-.458 2.888 2.888 0 0 0-.277-.318 3.476 3.476 0 0 0-.129-.12 2.867 2.867 0 0 1-.39.642zM8.22 3.354l4.397.817c.369.069.703.315.944.656.241.34.39.777.39 1.229h.002v10.67h.381c.286.001.546-.116.734-.305.19-.19.308-.448.308-.734l-.001-11.293a1.03 1.03 0 0 0-.306-.734c-.19-.19-.45-.307-.734-.307l-6.115.001zm6.114-.598a1.642 1.642 0 0 1 1.637 1.637l.002 11.294c-.002.451-.186.86-.482 1.156-.295.297-.705.48-1.156.48l-.382.001v.025c-.001.452-.15.833-.392 1.084a1.017 1.017 0 0 1-.944.304l-6.28-1.164v-.001c-.368-.07-.702-.315-.944-.656a2.15 2.15 0 0 1-.39-1.229L5 4.394c.001-.451.15-.833.392-1.084.046-.048.096-.09.147-.128.29-.263.676-.425 1.098-.425h7.696z" fill-rule="nonzero" fill="#53605E"/></svg>